<svg width="17" height="17" viewBox="0 0 17 17" fill="none" xmlns="http://www.w3.org/2000/svg">
<path d="M15.6595 5.21313C15.3148 4.81157 14.8844 4.48639 14.3977 4.25974C13.911 4.03309 13.3794 3.9103 12.839 3.89974C12.7058 2.82478 12.1687 1.83422 11.3293 1.11556C10.4899 0.396894 9.40649 0 8.28414 0C7.1618 0 6.07839 0.396894 5.239 1.11556C4.39961 1.83422 3.86248 2.82478 3.72928 3.89974C3.19589 3.90921 2.67055 4.02687 2.18741 4.24507C1.70427 4.46327 1.27415 4.77713 0.925038 5.16622C0.560804 5.58248 0.294037 6.06969 0.142969 6.59455C-0.00809835 7.11941 -0.0399042 7.66954 0.0497255 8.20735L0.989876 13.6251C1.12733 14.4946 1.58291 15.2879 2.27418 15.8615C2.96545 16.4351 3.84674 16.751 4.75858 16.7522H11.7692C12.6704 16.7482 13.5414 16.438 14.2291 15.8761C14.9168 15.3143 15.3774 14.5366 15.5298 13.6798L16.5267 8.26207C16.6225 7.72361 16.5945 7.17142 16.4446 6.64456C16.2948 6.1177 16.0267 5.62903 15.6595 5.21313V5.21313ZM8.28414 1.14006C9.08208 1.14578 9.85245 1.42236 10.4601 1.92127C11.0677 2.42019 11.4738 3.10957 11.6071 3.86847H4.9612C5.09449 3.10957 5.50057 2.42019 6.10821 1.92127C6.71584 1.42236 7.4862 1.14578 8.28414 1.14006V1.14006ZM15.311 8.05881L14.306 13.4765C14.2032 14.0614 13.8902 14.5927 13.4219 14.9773C12.9536 15.3618 12.3599 15.575 11.7449 15.5795H4.73427C4.11149 15.5769 3.51022 15.3596 3.03906 14.9667C2.56789 14.5739 2.25789 14.0315 2.16506 13.4375L1.24923 8.01972C1.1884 7.64943 1.21045 7.27087 1.3139 6.90949C1.41735 6.54811 1.5998 6.21227 1.84898 5.92455C2.09153 5.64872 2.39321 5.42691 2.73322 5.2744C3.07322 5.12189 3.44346 5.04231 3.81843 5.04114H12.7336C13.121 5.03388 13.505 5.11095 13.8572 5.2666C14.2094 5.42225 14.5207 5.65249 14.7679 5.94019C15.013 6.23386 15.1885 6.57562 15.2823 6.94158C15.3761 7.30753 15.3859 7.68883 15.311 8.05881ZM5.09898 7.48811C5.09898 7.64273 5.05145 7.79388 4.96239 7.92244C4.87333 8.05101 4.74676 8.15121 4.59866 8.21038C4.45057 8.26955 4.28761 8.28503 4.13039 8.25487C3.97317 8.2247 3.82876 8.15024 3.71541 8.04091C3.60207 7.93158 3.52488 7.79228 3.4936 7.64063C3.46233 7.48898 3.47838 7.33179 3.53973 7.18893C3.60107 7.04608 3.70495 6.92399 3.83823 6.83808C3.97151 6.75218 4.12821 6.70633 4.28851 6.70633C4.50346 6.70633 4.7096 6.78869 4.8616 6.93531C5.01359 7.08192 5.09898 7.28077 5.09898 7.48811V7.48811ZM13.074 7.48811C13.074 7.64273 13.0265 7.79388 12.9375 7.92244C12.8484 8.05101 12.7218 8.15121 12.5737 8.21038C12.4256 8.26955 12.2627 8.28503 12.1055 8.25487C11.9482 8.2247 11.8038 8.15024 11.6905 8.04091C11.5771 7.93158 11.4999 7.79228 11.4687 7.64063C11.4374 7.48898 11.4534 7.33179 11.5148 7.18893C11.5761 7.04608 11.68 6.92399 11.8133 6.83808C11.9466 6.75218 12.1033 6.70633 12.2636 6.70633C12.4785 6.70633 12.6847 6.78869 12.8367 6.93531C12.9887 7.08192 13.074 7.28077 13.074 7.48811Z" fill="#3E8D43"/>
</svg>
