<svg width="23" height="23" viewBox="0 0 23 23" fill="none" xmlns="http://www.w3.org/2000/svg">
<path d="M11.5044 22.966C11.1065 22.9681 10.7123 22.8905 10.3448 22.738C9.97727 22.5855 9.64396 22.3611 9.36445 22.0779L7.85577 20.5692C7.82752 20.5415 7.79406 20.5197 7.75733 20.505C7.7206 20.4903 7.68133 20.4831 7.64177 20.4836H5.5018C4.70056 20.4836 3.93198 20.1661 3.36441 19.6005C2.79685 19.035 2.47657 18.2675 2.47374 17.4663V15.3263C2.47492 15.2867 2.46793 15.2472 2.4532 15.2104C2.43848 15.1736 2.41633 15.1402 2.38814 15.1123L0.89016 13.625C0.608057 13.3446 0.384182 13.0112 0.231414 12.6439C0.078646 12.2767 0 11.8828 0 11.4851C0 11.0873 0.078646 10.6934 0.231414 10.3262C0.384182 9.95893 0.608057 9.6255 0.89016 9.34508L2.39884 7.8257C2.4288 7.79916 2.45213 7.766 2.467 7.72884C2.48186 7.69169 2.48783 7.65157 2.48444 7.6117V5.47173C2.48727 4.67049 2.80755 3.90304 3.37511 3.33748C3.94268 2.77192 4.71126 2.45436 5.5125 2.45437H7.65247C7.69203 2.45493 7.7313 2.44766 7.76803 2.43297C7.80476 2.41828 7.83822 2.39646 7.86647 2.36877L9.36445 0.860088C9.94017 0.308151 10.7069 0 11.5044 0C12.302 0 13.0687 0.308151 13.6444 0.860088L15.1531 2.36877C15.2069 2.42307 15.28 2.45385 15.3564 2.45437H17.4963C18.2976 2.4572 19.065 2.77748 19.6306 3.34504C20.1962 3.91261 20.5137 4.68119 20.5137 5.48243V7.6224C20.5131 7.66196 20.5204 7.70123 20.5351 7.73796C20.5498 7.77469 20.5716 7.80815 20.5993 7.8364L22.1187 9.34508C22.6832 9.91423 23 10.6834 23 11.4851C23 12.2867 22.6832 13.0559 22.1187 13.625L20.5993 15.1123C20.5469 15.1716 20.5167 15.2472 20.5137 15.3263V17.4663C20.5137 18.2665 20.1958 19.034 19.6299 19.5999C19.0641 20.1657 18.2966 20.4836 17.4963 20.4836H15.3564C15.28 20.4842 15.2069 20.5149 15.1531 20.5692L13.6444 22.0779C13.3642 22.3601 13.0307 22.5839 12.6634 22.7364C12.2961 22.8888 11.9021 22.9669 11.5044 22.966ZM5.5125 4.05935C5.13594 4.06215 4.7756 4.21298 4.50932 4.47925C4.24305 4.74553 4.09222 5.10587 4.08942 5.48243V7.6224C4.08786 8.12736 3.88805 8.6115 3.53303 8.97058L2.02435 10.4686C1.76102 10.735 1.61333 11.0944 1.61333 11.469C1.61333 11.8436 1.76102 12.203 2.02435 12.4694L3.53303 13.9781C3.71027 14.1549 3.8507 14.3651 3.94621 14.5965C4.04171 14.8279 4.09038 15.076 4.08942 15.3263V17.4663C4.09224 17.8418 4.24342 18.2011 4.50999 18.4656C4.77657 18.7302 5.13692 18.8787 5.5125 18.8787H7.65247C8.15743 18.8802 8.64158 19.08 9.00066 19.435L10.5093 20.9437C10.7814 21.2003 11.1412 21.3432 11.5151 21.3432C11.8891 21.3432 12.2489 21.2003 12.5209 20.9437L14.0296 19.435C14.3841 19.0797 14.8651 18.8796 15.3671 18.8787H17.507C17.8816 18.8787 18.2409 18.7299 18.5058 18.465C18.7706 18.2001 18.9194 17.8409 18.9194 17.4663V15.3263C18.9221 14.8216 19.1218 14.3378 19.4758 13.9781L20.9952 12.4694C21.256 12.2017 21.4019 11.8427 21.4019 11.469C21.4019 11.0953 21.256 10.7363 20.9952 10.4686L19.4651 8.95988C19.1101 8.60081 18.9103 8.11666 18.9087 7.6117V5.47173C18.9059 5.09801 18.7562 4.74039 18.492 4.47612C18.2277 4.21185 17.8701 4.06215 17.4963 4.05935H15.3564C15.1075 4.06129 14.8608 4.01302 14.6309 3.91742C14.4011 3.82182 14.193 3.68085 14.0189 3.50295L12.5102 1.99427C12.2382 1.7377 11.8784 1.59479 11.5044 1.59479C11.1305 1.59479 10.7707 1.7377 10.4986 1.99427L8.98995 3.50295C8.81425 3.68166 8.60428 3.82306 8.37261 3.91866C8.14095 4.01427 7.89237 4.06212 7.64177 4.05935H5.5125ZM8.29446 15.4975C8.18876 15.4999 8.08373 15.4802 7.98608 15.4396C7.88843 15.3991 7.80031 15.3386 7.72737 15.2621C7.57709 15.1116 7.49268 14.9077 7.49268 14.695C7.49268 14.4824 7.57709 14.2784 7.72737 14.1279L14.1473 7.708C14.2978 7.55772 14.5017 7.47331 14.7144 7.47331C14.927 7.47331 15.131 7.55772 15.2815 7.708C15.4318 7.85847 15.5162 8.06243 15.5162 8.27509C15.5162 8.48775 15.4318 8.69172 15.2815 8.84219L8.86156 15.2621C8.78747 15.3371 8.69914 15.3966 8.60176 15.437C8.50438 15.4774 8.3999 15.498 8.29446 15.4975ZM8.29446 7.20511C8.08284 7.20511 7.87597 7.26786 7.70001 7.38543C7.52405 7.503 7.38691 7.67011 7.30593 7.86563C7.22494 8.06114 7.20375 8.27628 7.24504 8.48384C7.28632 8.69139 7.38823 8.88205 7.53787 9.03169C7.68751 9.18133 7.87816 9.28323 8.08572 9.32452C8.29328 9.36581 8.50842 9.34462 8.70393 9.26363C8.89945 9.18265 9.06655 9.0455 9.18413 8.86955C9.3017 8.69359 9.36445 8.48672 9.36445 8.27509C9.36445 7.99131 9.25172 7.71916 9.05106 7.5185C8.8504 7.31784 8.57824 7.20511 8.29446 7.20511ZM14.7144 13.625C14.5028 13.625 14.2959 13.6878 14.1199 13.8053C13.944 13.9229 13.8068 14.09 13.7258 14.2855C13.6449 14.4811 13.6237 14.6962 13.665 14.9038C13.7062 15.1113 13.8081 15.302 13.9578 15.4516C14.1074 15.6012 14.2981 15.7032 14.5056 15.7444C14.7132 15.7857 14.9283 15.7645 15.1238 15.6835C15.3194 15.6026 15.4865 15.4654 15.604 15.2895C15.7216 15.1135 15.7844 14.9066 15.7844 14.695C15.7844 14.4112 15.6716 14.1391 15.471 13.9384C15.2703 13.7378 14.9982 13.625 14.7144 13.625Z" fill="black"/>
</svg>
