<svg width="16" height="16" viewBox="0 0 16 16" fill="none" xmlns="http://www.w3.org/2000/svg">
<path d="M7.49198 15.7506H4.35903C3.46232 15.7778 2.59153 15.442 1.93702 14.8167C1.28251 14.1913 0.897521 13.3273 0.866211 12.4135V3.62478C0.897521 2.71096 1.28251 1.84695 1.93702 1.22161C2.59153 0.596276 3.46232 0.260491 4.35903 0.287662H7.49198C8.388 0.260519 9.25803 0.596527 9.91142 1.22205C10.5648 1.84758 10.9483 2.7116 10.9777 3.62478C10.9777 3.76975 10.9212 3.90878 10.8207 4.01129C10.7201 4.11379 10.5837 4.17138 10.4415 4.17138C10.2992 4.17138 10.1628 4.11379 10.0623 4.01129C9.9617 3.90878 9.9052 3.76975 9.9052 3.62478C9.8741 3.00215 9.60318 2.41719 9.15131 1.99702C8.69943 1.57684 8.10313 1.35542 7.49198 1.38086H4.35903C3.74739 1.35351 3.15004 1.57428 2.69775 1.99484C2.24546 2.4154 1.97509 3.00149 1.94581 3.62478V12.4135C1.97509 13.0368 2.24546 13.6229 2.69775 14.0434C3.15004 14.464 3.74739 14.6848 4.35903 14.6574H7.49198C8.10313 14.6829 8.69943 14.4614 9.15131 14.0413C9.60318 13.6211 9.8741 13.0361 9.9052 12.4135C9.9052 12.2685 9.9617 12.1295 10.0623 12.027C10.1628 11.9245 10.2992 11.8669 10.4415 11.8669C10.5837 11.8669 10.7201 11.9245 10.8207 12.027C10.9212 12.1295 10.9777 12.2685 10.9777 12.4135C10.9483 13.3267 10.5648 14.1907 9.91142 14.8162C9.25803 15.4418 8.388 15.7778 7.49198 15.7506ZM5.76321 8.01914C5.76321 8.09092 5.77708 8.162 5.80403 8.22831C5.83098 8.29463 5.87048 8.35489 5.92028 8.40564C5.97008 8.4564 6.0292 8.49666 6.09426 8.52413C6.15932 8.5516 6.22906 8.56574 6.29948 8.56574H13.4051L12.1985 9.76681C12.1481 9.81764 12.1081 9.87813 12.0809 9.94479C12.0536 10.0114 12.0395 10.083 12.0395 10.1552C12.0395 10.2274 12.0536 10.2989 12.0809 10.3656C12.1081 10.4322 12.1481 10.4927 12.1985 10.5436C12.2484 10.5945 12.3078 10.6348 12.3733 10.662C12.4387 10.6891 12.5088 10.7027 12.5795 10.7018C12.6491 10.7025 12.7181 10.6889 12.7824 10.6617C12.8467 10.6345 12.9049 10.5943 12.9535 10.5436L15.0703 8.38593C15.1207 8.33511 15.1607 8.27462 15.1879 8.20796C15.2152 8.1413 15.2292 8.06979 15.2292 7.99756C15.2292 7.92534 15.2152 7.85383 15.1879 7.78717C15.1607 7.7205 15.1207 7.66001 15.0703 7.60919L12.9535 5.45157C12.9042 5.40047 12.8455 5.35988 12.7807 5.33217C12.7158 5.30446 12.6463 5.29019 12.576 5.29019C12.5057 5.29019 12.4361 5.30446 12.3713 5.33217C12.3065 5.35988 12.2477 5.40047 12.1985 5.45157C12.1481 5.50239 12.1081 5.56288 12.0809 5.62954C12.0536 5.69621 12.0395 5.76772 12.0395 5.83994C12.0395 5.91217 12.0536 5.98368 12.0809 6.05034C12.1081 6.117 12.1481 6.17749 12.1985 6.22831L13.3768 7.42939H6.29948C6.22535 7.42915 6.15197 7.44459 6.08399 7.47471C6.016 7.50484 5.95488 7.54901 5.90449 7.60443C5.8541 7.65984 5.81553 7.72531 5.79121 7.79669C5.76689 7.86807 5.75736 7.94381 5.76321 8.01914Z" fill="black"/>
</svg>
