<svg width="557" height="169" viewBox="0 0 557 169" fill="none" xmlns="http://www.w3.org/2000/svg">
<path d="M108.054 136.268H91.7859C90.3847 128.018 89.8736 119.251 90.1291 110.617C79.4484 118.992 66.4852 125.051 52.7553 125.051C13.8569 125.051 8.77213 89.8553 24.2821 56.8491C-0.251873 48.7339 -3.55656 28.8748 4.70957 13.7972L17.1616 20.1071C12.0768 29.134 14.6236 40.3505 30.7681 45.2483C46.1459 21.1438 72.839 0.775269 104.872 0.775269C146.441 0.775269 134.112 60.7191 51.8653 60.7191C47.9261 60.7191 44.3658 60.594 40.9378 60.2096C28.0979 85.2168 29.7459 111.127 58.2191 111.127C72.0811 111.127 83.6431 102.109 92.0326 91.6607C93.5572 82.1244 96.104 73.6159 99.4087 67.4222C105.26 56.3397 118.091 59.8164 118.091 69.746C118.091 76.1899 112.883 86.8881 104.238 97.0768C103.727 109.196 105.005 123.121 108.054 136.268ZM48.5606 47.8312C49.1951 47.8312 49.9618 47.8312 50.5963 47.8312C108.565 47.8312 124.066 14.9591 103.603 14.9591C81.863 14.9591 61.6559 29.7775 48.5606 47.8312Z" fill="#3E8D43"/>
<path d="M145.78 76.4044C147.807 72.3646 150.689 69.2275 154.425 66.9932C158.232 64.7588 162.85 63.6416 168.279 63.6416V75.7609H165.229C152.257 75.7609 145.78 82.893 145.78 97.1572V135.58H134.209V64.9286H145.78V76.4044ZM241.625 64.9286L199.678 168.836H187.728L201.458 134.802L173.363 64.9286H186.203L208.067 122.173L229.675 64.9286H241.625ZM248.931 99.9994C248.931 92.7779 250.376 86.459 253.258 81.0429C256.139 75.5464 260.078 71.2921 265.075 68.2802C270.16 65.2772 275.8 63.7667 281.986 63.7667C288.085 63.7667 293.381 65.0984 297.875 67.7707C302.37 70.4341 305.71 73.7857 307.913 77.8254V64.9286H319.616V135.58H307.913V122.432C305.63 126.553 302.193 129.994 297.62 132.746C293.125 135.41 287.873 136.741 281.854 136.741C275.677 136.741 270.081 135.195 265.075 132.094C260.078 129.002 256.139 124.667 253.258 119.081C250.376 113.495 248.931 107.131 248.931 99.9994ZM307.913 100.124C307.913 94.7977 306.855 90.1592 304.74 86.1999C302.625 82.2495 299.743 79.2375 296.095 77.1819C292.535 75.028 288.596 73.9555 284.278 73.9555C279.951 73.9555 276.011 74.9833 272.451 77.0479C268.891 79.1124 266.053 82.1244 263.938 86.0747C261.814 90.0251 260.757 94.6726 260.757 99.9994C260.757 105.415 261.814 110.143 263.938 114.174C266.053 118.134 268.891 121.181 272.451 123.335C276.011 125.391 279.951 126.428 284.278 126.428C288.596 126.428 292.535 125.391 296.095 123.335C299.743 121.181 302.625 118.134 304.74 114.174C306.855 110.143 307.913 105.451 307.913 100.124ZM334.835 99.9994C334.835 92.7779 336.28 86.459 339.162 81.0429C342.043 75.5464 345.983 71.2921 350.979 68.2802C356.064 65.2772 361.748 63.7667 368.014 63.7667C373.442 63.7667 378.483 65.0627 383.145 67.6367C387.807 70.1302 391.367 73.4371 393.817 77.5662V40.1807H405.511V135.58H393.817V122.298C391.534 126.508 388.142 129.994 383.647 132.746C379.162 135.41 373.901 136.741 367.891 136.741C361.704 136.741 356.064 135.195 350.979 132.094C345.983 129.002 342.043 124.667 339.162 119.081C336.28 113.495 334.835 107.131 334.835 99.9994ZM393.817 100.124C393.817 94.7977 392.759 90.1592 390.644 86.1999C388.521 82.2495 385.639 79.2375 381.999 77.1819C378.439 75.028 374.5 73.9555 370.173 73.9555C365.855 73.9555 361.916 74.9833 358.355 77.0479C354.795 79.1124 351.958 82.1244 349.834 86.0747C347.719 90.0251 346.661 94.6726 346.661 99.9994C346.661 105.415 347.719 110.143 349.834 114.174C351.958 118.134 354.795 121.181 358.355 123.335C361.916 125.391 365.855 126.428 370.173 126.428C374.5 126.428 378.439 125.391 381.999 123.335C385.639 121.181 388.521 118.134 390.644 114.174C392.759 110.143 393.817 105.451 393.817 100.124ZM463.964 135.58L436.628 104.379V135.58H425.066V40.1807H436.628V96.2545L463.453 64.9286H479.598L446.798 100.124L479.721 135.58H463.964ZM486.163 99.9994C486.163 92.7779 487.6 86.459 490.481 81.0429C493.363 75.5464 497.302 71.2921 502.308 68.2802C507.392 65.2772 513.024 63.7667 519.21 63.7667C525.317 63.7667 530.613 65.0984 535.099 67.7707C539.593 70.4341 542.942 73.7857 545.145 77.8254V64.9286H556.839V135.58H545.145V122.432C542.854 126.553 539.426 129.994 534.843 132.746C530.358 135.41 525.106 136.741 519.087 136.741C512.9 136.741 507.304 135.195 502.308 132.094C497.302 129.002 493.363 124.667 490.481 119.081C487.6 113.495 486.163 107.131 486.163 99.9994ZM545.145 100.124C545.145 94.7977 544.088 90.1592 541.964 86.1999C539.849 82.2495 536.967 79.2375 533.319 77.1819C529.759 75.028 525.819 73.9555 521.501 73.9555C517.174 73.9555 513.235 74.9833 509.675 77.0479C506.115 79.1124 503.277 82.1244 501.162 86.0747C499.047 90.0251 497.981 94.6726 497.981 99.9994C497.981 105.415 499.047 110.143 501.162 114.174C503.277 118.134 506.115 121.181 509.675 123.335C513.235 125.391 517.174 126.428 521.501 126.428C525.819 126.428 529.759 125.391 533.319 123.335C536.967 121.181 539.849 118.134 541.964 114.174C544.088 110.143 545.145 105.451 545.145 100.124Z" fill="black"/>
</svg>
