<svg width="331" height="259" viewBox="0 0 331 259" fill="none" xmlns="http://www.w3.org/2000/svg">
<mask id="mask0_21_71" style="mask-type:luminance" maskUnits="userSpaceOnUse" x="0" y="0" width="331" height="259">
<path d="M330.59 0.493408H0.461914V258.829H330.59V0.493408Z" fill="white"/>
</mask>
<g mask="url(#mask0_21_71)">
<mask id="mask1_21_71" style="mask-type:luminance" maskUnits="userSpaceOnUse" x="160" y="18" width="143" height="223">
<path d="M160.843 18.1573H302.494V240.061H160.843V18.1573Z" fill="white"/>
</mask>
<g mask="url(#mask1_21_71)">
<mask id="mask2_21_71" style="mask-type:luminance" maskUnits="userSpaceOnUse" x="132" y="0" width="199" height="258">
<path d="M220.314 0.717651L330.005 40.1296L242.008 257.924L132.317 218.512L220.314 0.717651Z" fill="white"/>
</mask>
<g mask="url(#mask2_21_71)">
<mask id="mask3_21_71" style="mask-type:luminance" maskUnits="userSpaceOnUse" x="160" y="18" width="142" height="222">
<path d="M275.157 20.4258C244.871 9.54105 200.628 49.4403 176.346 109.539C152.063 169.643 156.934 227.184 187.22 238.069C217.511 248.954 261.749 209.055 286.036 148.956C310.318 88.8522 305.448 31.3062 275.157 20.4258Z" fill="white"/>
</mask>
<g mask="url(#mask3_21_71)">
<mask id="mask4_21_71" style="mask-type:luminance" maskUnits="userSpaceOnUse" x="160" y="18" width="143" height="223">
<path d="M302.494 18.1575H160.843V240.061H302.494V18.1575Z" fill="white"/>
</mask>
<g mask="url(#mask4_21_71)">
<mask id="mask5_21_71" style="mask-type:luminance" maskUnits="userSpaceOnUse" x="160" y="18" width="143" height="223">
<path d="M160.843 18.1575H302.494V240.061H160.843V18.1575Z" fill="white"/>
</mask>
<g mask="url(#mask5_21_71)">
<mask id="mask6_21_71" style="mask-type:luminance" maskUnits="userSpaceOnUse" x="132" y="0" width="199" height="258">
<path d="M220.314 0.717773L330.005 40.1297L242.008 257.924L132.317 218.512L220.314 0.717773Z" fill="white"/>
</mask>
<g mask="url(#mask6_21_71)">
<mask id="mask7_21_71" style="mask-type:luminance" maskUnits="userSpaceOnUse" x="160" y="18" width="142" height="222">
<path d="M275.157 20.4259C244.871 9.54117 200.628 49.4404 176.346 109.539C152.063 169.643 156.934 227.184 187.22 238.069C217.511 248.954 261.749 209.055 286.036 148.956C310.318 88.8524 305.448 31.3064 275.157 20.4259Z" fill="white"/>
</mask>
<g mask="url(#mask7_21_71)">
<path d="M220.314 0.717773L330.005 40.1297L242.008 257.924L132.317 218.512L220.314 0.717773Z" fill="#3E8D43"/>
</g>
</g>
</g>
</g>
</g>
</g>
</g>
<mask id="mask8_21_71" style="mask-type:luminance" maskUnits="userSpaceOnUse" x="71" y="71" width="101" height="156">
<path d="M71.8726 71.1493H171.379V226.813H71.8726V71.1493Z" fill="white"/>
</mask>
<g mask="url(#mask8_21_71)">
<mask id="mask9_21_71" style="mask-type:luminance" maskUnits="userSpaceOnUse" x="52" y="59" width="139" height="181">
<path d="M114.163 59.5055L190.901 87.0796L129.336 239.453L52.5977 211.879L114.163 59.5055Z" fill="white"/>
</mask>
<g mask="url(#mask9_21_71)">
<mask id="mask10_21_71" style="mask-type:luminance" maskUnits="userSpaceOnUse" x="72" y="72" width="99" height="155">
<path d="M152.53 73.2926C131.339 65.6767 100.389 93.5915 83.4009 135.638C66.4125 177.685 69.8193 217.947 91.0102 225.563C112.201 233.174 143.151 205.264 160.139 163.212C177.127 121.166 173.721 80.9041 152.53 73.2926Z" fill="white"/>
</mask>
<g mask="url(#mask10_21_71)">
<mask id="mask11_21_71" style="mask-type:luminance" maskUnits="userSpaceOnUse" x="71" y="71" width="101" height="156">
<path d="M171.379 71.1493H71.8726V226.813H171.379V71.1493Z" fill="white"/>
</mask>
<g mask="url(#mask11_21_71)">
<mask id="mask12_21_71" style="mask-type:luminance" maskUnits="userSpaceOnUse" x="71" y="71" width="101" height="156">
<path d="M71.8726 71.1493H171.379V226.813H71.8726V71.1493Z" fill="white"/>
</mask>
<g mask="url(#mask12_21_71)">
<mask id="mask13_21_71" style="mask-type:luminance" maskUnits="userSpaceOnUse" x="52" y="59" width="139" height="181">
<path d="M114.163 59.5055L190.901 87.0796L129.336 239.453L52.5977 211.879L114.163 59.5055Z" fill="white"/>
</mask>
<g mask="url(#mask13_21_71)">
<mask id="mask14_21_71" style="mask-type:luminance" maskUnits="userSpaceOnUse" x="72" y="72" width="99" height="155">
<path d="M152.53 73.2926C131.339 65.6767 100.389 93.5915 83.4009 135.638C66.4125 177.685 69.8193 217.947 91.0102 225.563C112.201 233.174 143.151 205.264 160.139 163.212C177.127 121.166 173.721 80.9041 152.53 73.2926Z" fill="white"/>
</mask>
<g mask="url(#mask14_21_71)">
<path d="M114.163 59.5055L190.901 87.0796L129.336 239.453L52.5977 211.879L114.163 59.5055Z" fill="#3E8D43"/>
</g>
</g>
</g>
</g>
</g>
</g>
</g>
<mask id="mask15_21_71" style="mask-type:luminance" maskUnits="userSpaceOnUse" x="14" y="102" width="72" height="111">
<path d="M14.5098 102.061H85.9204V212.461H14.5098V102.061Z" fill="white"/>
</mask>
<g mask="url(#mask15_21_71)">
<mask id="mask16_21_71" style="mask-type:luminance" maskUnits="userSpaceOnUse" x="0" y="93" width="100" height="129">
<path d="M44.5262 93.4666L99.0308 113.054L55.3046 221.285L0.79541 201.697L44.5262 93.4666Z" fill="white"/>
</mask>
<g mask="url(#mask16_21_71)">
<mask id="mask17_21_71" style="mask-type:luminance" maskUnits="userSpaceOnUse" x="14" y="102" width="71" height="111">
<path d="M71.7808 103.26C56.7268 97.8524 34.7402 117.677 22.6723 147.545C10.6089 177.414 13.028 206.01 28.0775 211.418C43.1315 216.826 65.1181 196.997 77.1815 167.133C89.2494 137.264 86.8303 108.668 71.7808 103.26Z" fill="white"/>
</mask>
<g mask="url(#mask17_21_71)">
<mask id="mask18_21_71" style="mask-type:luminance" maskUnits="userSpaceOnUse" x="14" y="102" width="72" height="111">
<path d="M85.9204 102.061H14.5098V212.461H85.9204V102.061Z" fill="white"/>
</mask>
<g mask="url(#mask18_21_71)">
<mask id="mask19_21_71" style="mask-type:luminance" maskUnits="userSpaceOnUse" x="14" y="102" width="72" height="111">
<path d="M14.5098 102.061H85.9204V212.461H14.5098V102.061Z" fill="white"/>
</mask>
<g mask="url(#mask19_21_71)">
<mask id="mask20_21_71" style="mask-type:luminance" maskUnits="userSpaceOnUse" x="0" y="93" width="100" height="129">
<path d="M44.5262 93.4666L99.0308 113.054L55.3046 221.285L0.79541 201.697L44.5262 93.4666Z" fill="white"/>
</mask>
<g mask="url(#mask20_21_71)">
<mask id="mask21_21_71" style="mask-type:luminance" maskUnits="userSpaceOnUse" x="14" y="102" width="71" height="111">
<path d="M71.7808 103.26C56.7268 97.8524 34.7402 117.677 22.6723 147.545C10.6089 177.414 13.028 206.01 28.0775 211.418C43.1315 216.826 65.1181 196.997 77.1815 167.133C89.2494 137.264 86.8303 108.668 71.7808 103.26Z" fill="white"/>
</mask>
<g mask="url(#mask21_21_71)">
<path d="M44.5262 93.4666L99.0308 113.054L55.3046 221.285L0.79541 201.697L44.5262 93.4666Z" fill="#3E8D43"/>
</g>
</g>
</g>
</g>
</g>
</g>
</g>
<mask id="mask22_21_71" style="mask-type:luminance" maskUnits="userSpaceOnUse" x="58" y="182" width="29" height="12">
<path d="M58.2451 182.257H86.3274V193.745H58.2451V182.257Z" fill="white"/>
</mask>
<g mask="url(#mask22_21_71)">
<mask id="mask23_21_71" style="mask-type:luminance" maskUnits="userSpaceOnUse" x="58" y="182" width="29" height="12">
<path d="M58.7161 190.368C63.6685 186.28 65.7584 185.478 68.5433 184.749C72.6452 183.654 82.3946 181.976 84.5622 182.339C85.1841 182.485 85.4127 182.632 85.646 182.925C85.9569 183.287 86.341 184.089 86.1901 184.603C85.9569 185.112 84.9509 185.914 84.329 185.987C83.9448 186.06 83.4784 185.914 83.172 185.698C82.7833 185.405 82.3169 184.603 82.3169 184.163C82.2437 183.727 82.3946 183.361 82.7056 183.067C83.0943 182.705 83.8671 182.265 84.4067 182.339C85.0286 182.412 85.9569 183.214 86.1901 183.801C86.341 184.309 86.2679 184.965 85.646 185.405C83.9448 186.862 73.7289 187.082 69.938 188.104C67.7704 188.76 66.3757 189.2 64.7523 190.075C63.1289 191.024 61.6564 193.65 60.4172 193.724C59.6444 193.797 58.6383 193.141 58.3319 192.628C58.0987 192.046 58.7161 190.368 58.7161 190.368Z" fill="white"/>
</mask>
<g mask="url(#mask23_21_71)">
<mask id="mask24_21_71" style="mask-type:luminance" maskUnits="userSpaceOnUse" x="57" y="181" width="31" height="14">
<path d="M87.0909 181.549H57.8242V194.797H87.0909V181.549Z" fill="white"/>
</mask>
<g mask="url(#mask24_21_71)">
<mask id="mask25_21_71" style="mask-type:luminance" maskUnits="userSpaceOnUse" x="58" y="182" width="29" height="12">
<path d="M58.2451 182.257H86.3274V193.745H58.2451V182.257Z" fill="white"/>
</mask>
<g mask="url(#mask25_21_71)">
<mask id="mask26_21_71" style="mask-type:luminance" maskUnits="userSpaceOnUse" x="58" y="182" width="29" height="12">
<path d="M58.7161 190.369C63.6685 186.28 65.7584 185.478 68.5433 184.749C72.6452 183.654 82.3946 181.976 84.5622 182.339C85.1841 182.485 85.4127 182.632 85.646 182.925C85.9569 183.287 86.341 184.09 86.1901 184.603C85.9569 185.112 84.9509 185.914 84.329 185.987C83.9448 186.06 83.4784 185.914 83.172 185.698C82.7833 185.405 82.3169 184.603 82.3169 184.163C82.2437 183.727 82.3946 183.361 82.7056 183.068C83.0943 182.705 83.8671 182.265 84.4067 182.339C85.0286 182.412 85.9569 183.214 86.1901 183.801C86.341 184.31 86.2679 184.965 85.646 185.405C83.9448 186.863 73.7289 187.082 69.938 188.105C67.7704 188.76 66.3757 189.2 64.7523 190.075C63.1289 191.024 61.6564 193.65 60.4172 193.724C59.6444 193.797 58.6383 193.142 58.3319 192.628C58.0987 192.046 58.7161 190.369 58.7161 190.369Z" fill="white"/>
</mask>
<g mask="url(#mask26_21_71)">
<path d="M533.7 -221.963H-224.892V493.429H533.7V-221.963Z" fill="#3E8D43"/>
</g>
</g>
</g>
</g>
</g>
<mask id="mask27_21_71" style="mask-type:luminance" maskUnits="userSpaceOnUse" x="60" y="170" width="20" height="17">
<path d="M60.751 170.686H79.4542V186.548H60.751V170.686Z" fill="white"/>
</mask>
<g mask="url(#mask27_21_71)">
<mask id="mask28_21_71" style="mask-type:luminance" maskUnits="userSpaceOnUse" x="60" y="170" width="20" height="17">
<path d="M65.3694 182.119C78.0639 180.294 78.6812 180.588 78.9922 181.101C79.3763 181.683 79.6095 182.852 78.9922 183.507C77.7529 185.038 69.7046 186.647 67.0751 186.427C65.7581 186.354 64.5966 185.987 64.057 185.185C63.5128 184.383 63.5906 182.339 63.9793 181.39C64.2902 180.514 64.9076 180.079 65.7581 179.419C66.9974 178.544 70.0155 176.646 71.2548 176.866C72.1053 177.013 73.0336 177.961 72.9559 178.544C72.9559 179.346 71.177 180.514 69.86 181.243C68.1589 182.119 64.7521 183.141 63.2842 183.141C62.5845 183.141 62.1227 182.998 61.6562 182.705C61.2721 182.339 60.8834 181.83 60.8057 181.317C60.8057 180.734 60.8834 180.079 61.5007 179.346C63.2064 177.306 72.4895 171.174 75.1235 170.811C75.974 170.665 76.6691 170.954 77.0578 171.32C77.5197 171.76 77.8306 172.416 77.7529 173.218C77.5974 174.749 75.5076 177.741 73.8065 179.566C72.1053 181.39 69.165 183.654 67.6147 184.089C66.7642 184.236 66.0691 184.089 65.5249 183.801C65.1408 183.581 64.7521 183.067 64.6744 182.559C64.5189 182.119 64.5966 181.683 64.8298 181.101C65.2963 180.225 66.6087 178.983 68.0034 178.035C70.0155 176.646 74.1952 174.24 76.0518 174.313C77.0578 174.313 78.0639 174.969 78.2971 175.551C78.6035 176.137 78.448 177.159 77.9084 177.961C77.1355 179.277 74.1174 181.463 72.7227 181.683C71.9499 181.83 71.0993 181.39 70.6329 181.028C70.2487 180.661 70.0155 180.006 70.0155 179.566C70.0155 179.057 70.0933 178.397 70.5551 178.035C71.4057 177.379 74.5015 176.866 75.7408 177.159C76.5136 177.306 77.291 177.815 77.4419 178.47C77.7529 179.13 77.3642 180.588 76.7469 181.101C76.285 181.536 75.2012 181.683 74.5793 181.536C73.9619 181.317 73.1891 180.588 72.9559 180.006C72.8004 179.419 72.9559 178.397 73.4178 177.961C73.8065 177.448 74.8125 177.013 75.4299 177.086C76.2072 177.233 77.4419 178.181 77.5974 178.91C77.7529 179.639 77.1355 180.881 76.3582 181.39C75.4299 181.976 71.9499 181.903 71.9499 181.683C71.8721 181.61 74.2729 180.954 74.1952 180.954C74.1952 180.881 72.334 181.83 71.6389 181.61C70.9438 181.39 70.0933 180.294 70.0155 179.566C69.9378 178.69 70.9438 177.448 71.7944 176.646C72.8782 175.624 74.8902 174.313 76.0518 174.313C76.9801 174.313 78.0639 174.895 78.2971 175.551C78.6035 176.211 78.2193 177.522 77.4419 178.328C76.3582 179.566 72.6449 180.225 70.8661 181.39C69.4713 182.192 68.6208 183.801 67.6147 184.089C66.8419 184.236 66.0691 184.163 65.5249 183.801C65.063 183.507 64.5966 182.632 64.5966 182.119C64.5966 181.61 64.7521 181.243 65.1408 180.734C65.9914 179.639 68.854 178.544 70.3219 177.013C71.8721 175.408 72.9559 172.049 74.1174 171.174C74.657 170.811 75.1235 170.665 75.6631 170.738C76.285 170.811 77.4419 171.54 77.6752 172.196C77.9084 172.851 77.5974 173.653 76.9801 174.533C75.2789 176.719 66.4532 182.559 63.8238 183.067C62.8955 183.287 62.2004 182.998 61.6562 182.705C61.2721 182.412 60.8834 181.83 60.8057 181.317C60.8057 180.661 61.1166 179.712 61.9672 178.983C63.7461 177.522 70.4774 175.408 73.2669 175.335C74.8902 175.335 76.9023 175.771 77.1355 176.499C77.3642 177.448 74.657 179.859 73.1891 180.881C71.9499 181.83 70.3219 182.632 69.0872 182.705C68.1589 182.778 66.6087 182.265 66.6087 182.05C66.6087 181.463 75.7408 179.639 77.6752 180.225C78.5257 180.441 79.0699 180.954 79.2254 181.536C79.454 182.119 79.454 182.998 78.9922 183.507C78.3702 184.309 76.7469 184.529 75.1235 184.965C72.6449 185.625 67.2306 186.72 65.4472 186.5C64.6744 186.354 64.2902 186.134 63.9793 185.771C63.5906 185.405 63.3574 184.823 63.3574 184.309C63.3574 183.874 63.5906 183.214 63.9015 182.852C64.2902 182.485 65.3694 182.119 65.3694 182.119Z" fill="white"/>
</mask>
<g mask="url(#mask28_21_71)">
<mask id="mask29_21_71" style="mask-type:luminance" maskUnits="userSpaceOnUse" x="60" y="170" width="21" height="18">
<path d="M80.0669 170.509H60.1655V187.069H80.0669V170.509Z" fill="white"/>
</mask>
<g mask="url(#mask29_21_71)">
<mask id="mask30_21_71" style="mask-type:luminance" maskUnits="userSpaceOnUse" x="60" y="170" width="20" height="17">
<path d="M60.7739 170.686H79.4543V186.548H60.7739V170.686Z" fill="white"/>
</mask>
<g mask="url(#mask30_21_71)">
<mask id="mask31_21_71" style="mask-type:luminance" maskUnits="userSpaceOnUse" x="60" y="170" width="20" height="17">
<path d="M65.3699 182.119C78.0643 180.295 78.6817 180.588 78.9926 181.101C79.3768 181.683 79.61 182.852 78.9926 183.507C77.7534 185.038 69.705 186.647 67.0756 186.427C65.7586 186.354 64.5971 185.987 64.0575 185.185C63.5133 184.383 63.5911 182.339 63.9798 181.39C64.2907 180.515 64.9081 180.079 65.7586 179.419C66.9979 178.544 70.016 176.646 71.2553 176.866C72.1058 177.013 73.0341 177.962 72.9564 178.544C72.9564 179.346 71.1775 180.515 69.8605 181.243C68.1594 182.119 64.7526 183.141 63.2847 183.141C62.585 183.141 62.1232 182.999 61.6567 182.705C61.2726 182.339 60.8839 181.83 60.8062 181.317C60.8062 180.734 60.8839 180.079 61.5012 179.346C63.2069 177.306 72.49 171.174 75.124 170.811C75.9745 170.665 76.6696 170.954 77.0583 171.32C77.5202 171.76 77.8311 172.416 77.7534 173.218C77.5979 174.749 75.5081 177.742 73.807 179.566C72.1058 181.39 69.1654 183.654 67.6152 184.09C66.7647 184.236 66.0696 184.09 65.5254 183.801C65.1413 183.581 64.7526 183.068 64.6748 182.559C64.5194 182.119 64.5971 181.683 64.8303 181.101C65.2968 180.226 66.6092 178.984 68.0039 178.035C70.016 176.646 74.1957 174.24 76.0523 174.313C77.0583 174.313 78.0643 174.969 78.2976 175.551C78.6039 176.137 78.4485 177.159 77.9089 177.962C77.136 179.277 74.1179 181.463 72.7232 181.683C71.9503 181.83 71.0998 181.39 70.6334 181.028C70.2492 180.661 70.016 180.006 70.016 179.566C70.016 179.057 70.0937 178.397 70.5556 178.035C71.4062 177.379 74.502 176.866 75.7413 177.159C76.5141 177.306 77.2915 177.815 77.4424 178.47C77.7534 179.13 77.3647 180.588 76.7473 181.101C76.2855 181.537 75.2017 181.683 74.5798 181.537C73.9624 181.317 73.1896 180.588 72.9564 180.006C72.8009 179.419 72.9564 178.397 73.4183 177.962C73.807 177.448 74.813 177.013 75.4303 177.086C76.2077 177.233 77.4424 178.181 77.5979 178.91C77.7534 179.639 77.136 180.881 76.3586 181.39C75.4303 181.976 71.9504 181.903 71.9504 181.683C71.8726 181.61 74.2734 180.954 74.1957 180.954C74.1957 180.881 72.3345 181.83 71.6394 181.61C70.9443 181.39 70.0937 180.295 70.016 179.566C69.9383 178.69 70.9443 177.448 71.7949 176.646C72.8787 175.624 74.8907 174.313 76.0523 174.313C76.9806 174.313 78.0643 174.895 78.2976 175.551C78.6039 176.211 78.2198 177.522 77.4424 178.328C76.3586 179.566 72.6454 180.226 70.8666 181.39C69.4718 182.192 68.6213 183.801 67.6152 184.09C66.8424 184.236 66.0696 184.163 65.5254 183.801C65.0635 183.507 64.5971 182.632 64.5971 182.119C64.5971 181.61 64.7526 181.243 65.1413 180.734C65.9918 179.639 68.8545 178.544 70.3224 177.013C71.8726 175.409 72.9564 172.049 74.1179 171.174C74.6575 170.811 75.124 170.665 75.6636 170.738C76.2855 170.811 77.4424 171.54 77.6756 172.196C77.9089 172.851 77.5979 173.653 76.9806 174.533C75.2794 176.72 66.4537 182.559 63.8243 183.068C62.896 183.287 62.2009 182.999 61.6567 182.705C61.2726 182.412 60.8839 181.83 60.8062 181.317C60.8062 180.661 61.1171 179.712 61.9677 178.984C63.7465 177.522 70.4779 175.409 73.2674 175.335C74.8907 175.335 76.9028 175.771 77.136 176.5C77.3647 177.448 74.6575 179.859 73.1896 180.881C71.9503 181.83 70.3224 182.632 69.0877 182.705C68.1594 182.779 66.6092 182.265 66.6092 182.05C66.6092 181.463 75.7413 179.639 77.6756 180.226C78.5262 180.441 79.0704 180.954 79.2259 181.537C79.4545 182.119 79.4545 182.999 78.9926 183.507C78.3707 184.31 76.7473 184.529 75.124 184.965C72.6454 185.625 67.2311 186.72 65.4477 186.5C64.6748 186.354 64.2907 186.134 63.9798 185.771C63.5911 185.405 63.3578 184.823 63.3578 184.31C63.3578 183.874 63.5911 183.214 63.902 182.852C64.2907 182.485 65.3699 182.119 65.3699 182.119Z" fill="white"/>
</mask>
<g mask="url(#mask31_21_71)">
<path d="M533.701 -221.963H-224.891V493.429H533.701V-221.963Z" fill="#3E8D43"/>
</g>
</g>
</g>
</g>
</g>
<mask id="mask32_21_71" style="mask-type:luminance" maskUnits="userSpaceOnUse" x="140" y="169" width="52" height="20">
<path d="M140.548 169.988H191.111V188.126H140.548V169.988Z" fill="white"/>
</mask>
<g mask="url(#mask32_21_71)">
<mask id="mask33_21_71" style="mask-type:luminance" maskUnits="userSpaceOnUse" x="140" y="170" width="52" height="19">
<path d="M140.9 184.965C148.249 178.69 152.351 177.159 157.537 175.697C165.43 173.438 184.855 169.496 188.957 170.078C190.036 170.225 190.658 170.518 190.892 171.027C191.198 171.393 191.12 172.196 190.814 172.635C190.503 173.071 189.341 173.511 188.802 173.364C188.335 173.291 187.718 172.709 187.563 172.269C187.407 171.829 187.485 171.1 187.796 170.738C188.102 170.298 188.88 170.005 189.341 170.005C189.886 170.078 190.581 170.445 190.814 170.88C191.043 171.32 191.198 172.269 190.581 172.924C188.18 175.408 166.513 176.793 158.776 179.13C154.13 180.514 150.883 181.756 148.021 183.507C145.775 184.823 144.147 187.884 142.679 188.031C141.907 188.178 140.978 187.595 140.667 187.082C140.356 186.573 140.9 184.965 140.9 184.965Z" fill="white"/>
</mask>
<g mask="url(#mask33_21_71)">
<mask id="mask34_21_71" style="mask-type:luminance" maskUnits="userSpaceOnUse" x="139" y="169" width="53" height="20">
<path d="M191.28 169.405H139.771V188.173H191.28V169.405Z" fill="white"/>
</mask>
<g mask="url(#mask34_21_71)">
<mask id="mask35_21_71" style="mask-type:luminance" maskUnits="userSpaceOnUse" x="140" y="169" width="52" height="20">
<path d="M140.548 169.988H191.111V188.126H140.548V169.988Z" fill="white"/>
</mask>
<g mask="url(#mask35_21_71)">
<mask id="mask36_21_71" style="mask-type:luminance" maskUnits="userSpaceOnUse" x="140" y="170" width="52" height="19">
<path d="M140.9 184.965C148.249 178.69 152.351 177.159 157.537 175.697C165.43 173.438 184.855 169.496 188.957 170.078C190.036 170.225 190.658 170.518 190.892 171.027C191.198 171.393 191.12 172.196 190.814 172.635C190.503 173.071 189.341 173.511 188.802 173.364C188.335 173.291 187.718 172.709 187.563 172.269C187.407 171.829 187.485 171.1 187.796 170.738C188.102 170.298 188.88 170.005 189.341 170.005C189.886 170.078 190.581 170.445 190.814 170.88C191.043 171.32 191.198 172.269 190.581 172.924C188.18 175.408 166.513 176.793 158.776 179.13C154.13 180.514 150.883 181.756 148.021 183.507C145.775 184.823 144.147 187.884 142.679 188.031C141.907 188.178 140.978 187.595 140.667 187.082C140.356 186.573 140.9 184.965 140.9 184.965Z" fill="white"/>
</mask>
<g mask="url(#mask36_21_71)">
<path d="M533.7 -221.963H-224.892V493.429H533.7V-221.963Z" fill="#3E8D43"/>
</g>
</g>
</g>
</g>
</g>
<mask id="mask37_21_71" style="mask-type:luminance" maskUnits="userSpaceOnUse" x="145" y="150" width="24" height="32">
<path d="M145.03 150.404H168.343V181.868H145.03V150.404Z" fill="white"/>
</mask>
<g mask="url(#mask37_21_71)">
<mask id="mask38_21_71" style="mask-type:luminance" maskUnits="userSpaceOnUse" x="145" y="150" width="24" height="32">
<path d="M152.429 175.408C164.657 168.254 165.429 168.62 165.818 169.056C166.202 169.496 166.358 170.225 166.125 170.811C165.663 171.76 163.806 172.562 161.949 173.653C158.698 175.482 150.261 179.639 147.943 180.225C147.243 180.441 146.937 180.441 146.548 180.294C146.008 180.152 145.309 179.566 145.153 179.057C145.002 178.543 145.309 177.668 145.853 177.013C146.781 175.844 149.644 175.262 151.423 173.946C153.435 172.489 155.602 170.591 157.148 168.694C158.543 167.016 159.082 163.877 160.399 163.294C161.328 162.855 163.262 163.294 163.34 163.803C163.573 164.386 161.172 165.554 159.704 167.085C157.148 169.862 150.805 179.785 149.955 179.492C149.566 179.346 149.644 177.668 150.106 176.646C150.961 174.895 154.596 172.778 156.531 170.518C158.543 168.254 160.399 163.803 161.716 163.148C162.256 162.855 162.722 162.928 163.184 163.075C163.651 163.294 164.346 163.877 164.423 164.386C164.579 165.192 162.956 166.356 162.8 167.525C162.645 168.983 164.346 171.173 164.039 172.489C163.806 173.584 162.956 174.602 161.949 175.042C160.555 175.697 157.148 175.624 155.991 175.042C155.214 174.602 154.752 174.093 154.674 173.071C154.363 170.665 158.003 160.155 159.626 159.715C160.322 159.568 161.561 160.81 161.639 161.466C161.716 162.052 160.322 163.583 160.166 163.51C159.937 163.437 160.166 162.052 160.555 161.177C161.172 159.715 162.8 156.942 164.112 156.213C165.045 155.704 166.28 155.558 166.98 155.92C167.597 156.287 168.37 157.602 168.214 158.331C167.986 159.06 165.352 159.788 165.429 160.155C165.429 160.375 166.28 160.375 166.358 160.591C166.358 160.737 165.896 161.177 165.429 161.324C164.812 161.539 163.417 161.686 162.645 161.104C161.25 160.008 159.937 154.971 159.937 153.147C160.015 152.198 160.244 151.47 160.788 151.034C161.328 150.594 162.411 150.301 163.033 150.521C163.806 150.667 164.734 151.47 165.045 152.492C165.585 154.316 164.268 159.499 163.34 161.324C162.878 162.346 162.178 163.075 161.483 163.294C160.943 163.51 160.244 163.363 159.782 163.148C159.315 162.928 158.776 162.561 158.62 161.906C158.309 160.664 159.86 156.507 160.788 155.338C161.25 154.829 161.794 154.609 162.334 154.536C162.878 154.462 163.573 154.536 164.039 154.829C164.579 155.118 164.968 155.704 165.118 156.213C165.274 156.727 165.118 157.891 165.045 157.891C164.89 157.891 164.346 155.338 164.501 155.265C164.657 155.191 165.585 156.507 165.896 157.602C166.513 159.715 166.902 164.899 166.047 167.452C165.429 169.349 164.039 170.811 162.645 171.976C161.328 172.998 159.315 174.386 158.076 174.166C156.842 173.946 155.063 171.902 155.136 171.173C155.214 170.591 156.375 170.005 157.226 169.862C158.465 169.642 161.328 169.931 162.027 170.811C162.567 171.54 162.1 173.218 161.716 174.166C161.328 174.968 160.555 175.697 159.782 176.064C159.009 176.357 157.692 176.573 156.997 176.21C156.297 175.844 155.525 174.533 155.525 173.726C155.525 172.998 156.142 172.122 156.842 171.76C157.848 171.247 160.632 171.247 161.639 171.76C162.256 172.049 162.567 172.635 162.722 173.218C162.878 173.726 162.8 174.386 162.489 174.968C162.027 175.771 160.399 176.866 159.393 177.159C158.776 177.379 158.076 177.448 157.537 177.232C156.842 176.866 155.835 175.697 155.758 174.895C155.68 174.24 156.22 173.144 156.842 172.778C157.537 172.342 159.238 172.342 159.937 172.778C160.632 173.144 161.094 174.24 161.094 174.895C161.094 175.624 160.477 176.573 159.86 176.939C159.238 177.306 158.003 177.448 157.381 177.159C156.686 176.866 155.913 175.99 155.758 175.335C155.602 174.602 155.991 173.511 156.531 173.071C157.075 172.562 158.154 172.195 158.931 172.342C159.704 172.562 160.866 173.873 161.094 174.602C161.25 175.188 161.021 175.771 160.632 176.21C160.244 176.719 158.465 177.306 158.465 177.379C158.465 177.379 160.015 176.939 160.015 176.866C159.937 176.719 157.692 177.306 156.919 176.939C156.297 176.573 155.758 175.624 155.758 174.895C155.68 174.166 156.22 173.071 156.842 172.489C157.692 171.76 159.471 171.173 160.399 171.32C161.25 171.393 162.1 172.049 162.489 172.635C162.8 173.144 162.878 173.873 162.722 174.386C162.567 174.968 162.256 175.551 161.639 175.844C160.788 176.357 158.698 176.719 157.614 176.43C156.842 176.21 155.991 175.551 155.758 174.895C155.447 174.166 155.991 172.635 156.375 172.122C156.453 171.902 156.608 171.76 156.842 171.76C157.459 171.76 160.015 173.584 159.86 174.166C159.704 174.895 156.142 175.99 155.063 175.482C153.979 174.968 152.895 172.635 153.279 171.393C153.901 169.716 159.315 169.129 160.71 167.016C162.1 164.899 161.716 160.884 161.561 158.693C161.483 157.382 160.477 156.067 160.788 155.338C161.021 154.898 161.716 154.609 162.334 154.536C162.956 154.462 164.039 154.756 164.579 155.191C164.968 155.558 165.196 156.14 165.274 156.727C165.352 157.455 165.045 158.404 164.657 159.28C164.112 160.517 162.956 162.561 162.1 163.075C161.483 163.437 160.866 163.51 160.322 163.294C159.704 163.148 158.931 162.635 158.62 161.906C158.076 160.664 158.543 157.891 158.854 156.14C159.082 154.609 159.471 153.001 160.088 151.983C160.555 151.323 161.172 150.667 161.872 150.521C162.645 150.374 163.884 150.667 164.579 151.47C165.74 152.638 166.591 156.433 166.513 158.257C166.435 159.499 166.047 160.81 165.429 161.324C165.045 161.686 164.268 161.686 163.728 161.613C163.184 161.466 162.489 161.104 162.178 160.664C161.872 160.155 161.561 159.206 161.872 158.477C162.256 157.529 165.74 155.704 165.663 155.704C165.663 155.631 163.495 157.162 163.417 157.089C163.417 157.015 164.112 156.067 164.657 155.847C165.274 155.631 166.358 155.631 166.98 155.92C167.519 156.213 168.137 156.942 168.214 157.744C168.292 159.28 165.974 162.928 164.268 164.312C162.878 165.481 160.866 166.21 159.393 166.21C158.154 166.21 156.531 165.701 155.991 164.825C155.369 163.877 155.913 161.397 156.686 160.228C157.303 159.06 158.776 157.964 160.015 157.671C161.25 157.455 163.417 157.744 164.112 158.766C165.196 160.591 162.1 168.254 160.866 170.738C160.166 171.976 159.393 173.364 158.698 173.291C158.076 173.291 156.764 171.173 156.997 170.665C157.226 170.298 158.62 170.225 159.393 170.371C160.244 170.518 162.027 171.76 161.949 171.976C161.872 172.195 160.088 172.342 159.549 171.976C159.009 171.54 159.16 170.225 159.009 169.276C158.854 168.254 158.465 166.943 158.854 165.994C159.238 164.972 160.399 163.73 161.328 163.363C162.027 163.001 163.106 163.001 163.573 163.294C164.112 163.657 164.501 164.459 164.423 165.334C164.268 167.085 161.483 170.445 159.393 172.998C156.919 175.917 152.662 181.027 150.032 181.756C148.482 182.119 146.392 181.536 145.931 180.808C145.464 180.079 146.315 178.543 146.859 177.521C147.398 176.284 148.249 175.408 149.333 173.946C151.112 171.54 154.441 166.87 156.764 164.459C158.387 162.781 160.015 160.664 161.405 160.591C162.567 160.517 164.268 161.466 164.579 162.561C165.045 164.312 161.949 168.62 160.088 171.173C158.232 173.511 155.369 175.99 153.512 177.306C152.429 178.108 151.578 178.47 150.494 178.983C149.411 179.492 147.943 180.514 147.014 180.368C146.237 180.294 145.309 179.639 145.153 179.057C145.002 178.47 145.386 177.595 146.237 176.719C148.482 174.46 160.088 169.056 163.184 168.547C164.268 168.327 165.045 168.327 165.507 168.694C165.974 169.129 166.435 170.005 166.125 170.811C165.352 172.851 156.842 178.617 154.285 178.837C153.201 178.91 152.118 178.181 151.889 177.595C151.578 177.013 152.429 175.408 152.429 175.408Z" fill="white"/>
</mask>
<g mask="url(#mask38_21_71)">
<mask id="mask39_21_71" style="mask-type:luminance" maskUnits="userSpaceOnUse" x="144" y="149" width="26" height="34">
<path d="M169.038 149.533H144.454V182.653H169.038V149.533Z" fill="white"/>
</mask>
<g mask="url(#mask39_21_71)">
<mask id="mask40_21_71" style="mask-type:luminance" maskUnits="userSpaceOnUse" x="145" y="150" width="24" height="32">
<path d="M145.03 150.404H168.343V181.868H145.03V150.404Z" fill="white"/>
</mask>
<g mask="url(#mask40_21_71)">
<mask id="mask41_21_71" style="mask-type:luminance" maskUnits="userSpaceOnUse" x="145" y="150" width="24" height="32">
<path d="M152.429 175.408C164.657 168.254 165.429 168.62 165.818 169.056C166.202 169.496 166.358 170.225 166.125 170.811C165.663 171.76 163.806 172.562 161.949 173.653C158.698 175.482 150.261 179.639 147.943 180.225C147.243 180.441 146.937 180.441 146.548 180.294C146.008 180.152 145.309 179.566 145.153 179.057C145.002 178.543 145.309 177.668 145.853 177.013C146.781 175.844 149.644 175.262 151.423 173.946C153.435 172.489 155.602 170.591 157.148 168.694C158.543 167.016 159.082 163.877 160.399 163.294C161.328 162.855 163.262 163.294 163.34 163.803C163.573 164.386 161.172 165.554 159.704 167.085C157.148 169.862 150.805 179.785 149.955 179.492C149.566 179.346 149.644 177.668 150.106 176.646C150.961 174.895 154.596 172.778 156.531 170.518C158.543 168.254 160.399 163.803 161.716 163.148C162.256 162.855 162.722 162.928 163.184 163.075C163.651 163.294 164.346 163.877 164.423 164.386C164.579 165.192 162.956 166.356 162.8 167.525C162.645 168.983 164.346 171.173 164.039 172.489C163.806 173.584 162.956 174.602 161.949 175.042C160.555 175.697 157.148 175.624 155.991 175.042C155.214 174.602 154.752 174.093 154.674 173.071C154.363 170.665 158.003 160.155 159.626 159.715C160.322 159.568 161.561 160.81 161.639 161.466C161.716 162.052 160.322 163.583 160.166 163.51C159.937 163.437 160.166 162.052 160.555 161.177C161.172 159.715 162.8 156.942 164.112 156.213C165.045 155.704 166.28 155.558 166.98 155.92C167.597 156.287 168.37 157.602 168.214 158.331C167.986 159.06 165.352 159.788 165.429 160.155C165.429 160.375 166.28 160.375 166.358 160.591C166.358 160.737 165.896 161.177 165.429 161.324C164.812 161.539 163.417 161.686 162.645 161.104C161.25 160.008 159.937 154.971 159.937 153.147C160.015 152.198 160.244 151.47 160.788 151.034C161.328 150.594 162.411 150.301 163.033 150.521C163.806 150.667 164.734 151.47 165.045 152.492C165.585 154.316 164.268 159.499 163.34 161.324C162.878 162.346 162.178 163.075 161.483 163.294C160.943 163.51 160.244 163.363 159.782 163.148C159.315 162.928 158.776 162.561 158.62 161.906C158.309 160.664 159.86 156.507 160.788 155.338C161.25 154.829 161.794 154.609 162.334 154.536C162.878 154.462 163.573 154.536 164.039 154.829C164.579 155.118 164.968 155.704 165.118 156.213C165.274 156.727 165.118 157.891 165.045 157.891C164.89 157.891 164.346 155.338 164.501 155.265C164.657 155.191 165.585 156.507 165.896 157.602C166.513 159.715 166.902 164.899 166.047 167.452C165.429 169.349 164.039 170.811 162.645 171.976C161.328 172.998 159.315 174.386 158.076 174.166C156.842 173.946 155.063 171.902 155.136 171.173C155.214 170.591 156.375 170.005 157.226 169.862C158.465 169.642 161.328 169.931 162.027 170.811C162.567 171.54 162.1 173.218 161.716 174.166C161.328 174.968 160.555 175.697 159.782 176.064C159.009 176.357 157.692 176.573 156.997 176.21C156.297 175.844 155.525 174.533 155.525 173.726C155.525 172.998 156.142 172.122 156.842 171.76C157.848 171.247 160.632 171.247 161.639 171.76C162.256 172.049 162.567 172.635 162.722 173.218C162.878 173.726 162.8 174.386 162.489 174.968C162.027 175.771 160.399 176.866 159.393 177.159C158.776 177.379 158.076 177.448 157.537 177.232C156.842 176.866 155.835 175.697 155.758 174.895C155.68 174.24 156.22 173.144 156.842 172.778C157.537 172.342 159.238 172.342 159.937 172.778C160.632 173.144 161.094 174.24 161.094 174.895C161.094 175.624 160.477 176.573 159.86 176.939C159.238 177.306 158.003 177.448 157.381 177.159C156.686 176.866 155.913 175.99 155.758 175.335C155.602 174.602 155.991 173.511 156.531 173.071C157.075 172.562 158.154 172.195 158.931 172.342C159.704 172.562 160.866 173.873 161.094 174.602C161.25 175.188 161.021 175.771 160.632 176.21C160.244 176.719 158.465 177.306 158.465 177.379C158.465 177.379 160.015 176.939 160.015 176.866C159.937 176.719 157.692 177.306 156.919 176.939C156.297 176.573 155.758 175.624 155.758 174.895C155.68 174.166 156.22 173.071 156.842 172.489C157.692 171.76 159.471 171.173 160.399 171.32C161.25 171.393 162.1 172.049 162.489 172.635C162.8 173.144 162.878 173.873 162.722 174.386C162.567 174.968 162.256 175.551 161.639 175.844C160.788 176.357 158.698 176.719 157.614 176.43C156.842 176.21 155.991 175.551 155.758 174.895C155.447 174.166 155.991 172.635 156.375 172.122C156.453 171.902 156.608 171.76 156.842 171.76C157.459 171.76 160.015 173.584 159.86 174.166C159.704 174.895 156.142 175.99 155.063 175.482C153.979 174.968 152.895 172.635 153.279 171.393C153.901 169.716 159.315 169.129 160.71 167.016C162.1 164.899 161.716 160.884 161.561 158.693C161.483 157.382 160.477 156.067 160.788 155.338C161.021 154.898 161.716 154.609 162.334 154.536C162.956 154.462 164.039 154.756 164.579 155.191C164.968 155.558 165.196 156.14 165.274 156.727C165.352 157.455 165.045 158.404 164.657 159.28C164.112 160.517 162.956 162.561 162.1 163.075C161.483 163.437 160.866 163.51 160.322 163.294C159.704 163.148 158.931 162.635 158.62 161.906C158.076 160.664 158.543 157.891 158.854 156.14C159.082 154.609 159.471 153.001 160.088 151.983C160.555 151.323 161.172 150.667 161.872 150.521C162.645 150.374 163.884 150.667 164.579 151.47C165.74 152.638 166.591 156.433 166.513 158.257C166.435 159.499 166.047 160.81 165.429 161.324C165.045 161.686 164.268 161.686 163.728 161.613C163.184 161.466 162.489 161.104 162.178 160.664C161.872 160.155 161.561 159.206 161.872 158.477C162.256 157.529 165.74 155.704 165.663 155.704C165.663 155.631 163.495 157.162 163.417 157.089C163.417 157.015 164.112 156.067 164.657 155.847C165.274 155.631 166.358 155.631 166.98 155.92C167.519 156.213 168.137 156.942 168.214 157.744C168.292 159.28 165.974 162.928 164.268 164.312C162.878 165.481 160.866 166.21 159.393 166.21C158.154 166.21 156.531 165.701 155.991 164.825C155.369 163.877 155.913 161.397 156.686 160.228C157.303 159.06 158.776 157.964 160.015 157.671C161.25 157.455 163.417 157.744 164.112 158.766C165.196 160.591 162.1 168.254 160.866 170.738C160.166 171.976 159.393 173.364 158.698 173.291C158.076 173.291 156.764 171.173 156.997 170.665C157.226 170.298 158.62 170.225 159.393 170.371C160.244 170.518 162.027 171.76 161.949 171.976C161.872 172.195 160.088 172.342 159.549 171.976C159.009 171.54 159.16 170.225 159.009 169.276C158.854 168.254 158.465 166.943 158.854 165.994C159.238 164.972 160.399 163.73 161.328 163.363C162.027 163.001 163.106 163.001 163.573 163.294C164.112 163.657 164.501 164.459 164.423 165.334C164.268 167.085 161.483 170.445 159.393 172.998C156.919 175.917 152.662 181.027 150.032 181.756C148.482 182.119 146.392 181.536 145.931 180.808C145.464 180.079 146.315 178.543 146.859 177.521C147.398 176.284 148.249 175.408 149.333 173.946C151.112 171.54 154.441 166.87 156.764 164.459C158.387 162.781 160.015 160.664 161.405 160.591C162.567 160.517 164.268 161.466 164.579 162.561C165.045 164.312 161.949 168.62 160.088 171.173C158.232 173.511 155.369 175.99 153.512 177.306C152.429 178.108 151.578 178.47 150.494 178.983C149.411 179.492 147.943 180.514 147.014 180.368C146.237 180.294 145.309 179.639 145.153 179.057C145.002 178.47 145.386 177.595 146.237 176.719C148.482 174.46 160.088 169.056 163.184 168.547C164.268 168.327 165.045 168.327 165.507 168.694C165.974 169.129 166.435 170.005 166.125 170.811C165.352 172.851 156.842 178.617 154.285 178.837C153.201 178.91 152.118 178.181 151.889 177.595C151.578 177.013 152.429 175.408 152.429 175.408Z" fill="white"/>
</mask>
<g mask="url(#mask41_21_71)">
<path d="M533.7 -221.963H-224.892V493.429H533.7V-221.963Z" fill="#3E8D43"/>
</g>
</g>
</g>
</g>
</g>
<mask id="mask42_21_71" style="mask-type:luminance" maskUnits="userSpaceOnUse" x="164" y="108" width="28" height="17">
<path d="M164.963 108.858H191.075V124.025H164.963V108.858Z" fill="white"/>
</mask>
<g mask="url(#mask42_21_71)">
<mask id="mask43_21_71" style="mask-type:luminance" maskUnits="userSpaceOnUse" x="165" y="108" width="26" height="16">
<path d="M165.507 120.674C176.341 113.813 185.784 109.509 188.491 109.069C189.264 108.923 189.808 108.849 190.192 109.143C190.659 109.509 191.12 110.604 190.969 111.113C190.814 111.696 189.808 112.355 189.186 112.355C188.646 112.429 187.951 111.989 187.718 111.622C187.407 111.187 187.252 110.458 187.485 110.018C187.796 109.509 188.88 108.923 189.419 108.923C189.963 108.923 190.659 109.436 190.892 109.871C191.043 110.385 191.043 111.187 190.425 111.915C188.802 114.033 178.431 116.879 174.329 119.286C171.544 120.894 169.532 123.594 167.753 123.956C166.747 124.103 165.507 123.814 165.119 123.227C164.735 122.718 165.507 120.674 165.507 120.674Z" fill="white"/>
</mask>
<g mask="url(#mask43_21_71)">
<mask id="mask44_21_71" style="mask-type:luminance" maskUnits="userSpaceOnUse" x="164" y="108" width="28" height="17">
<path d="M191.28 108.685H164.355V124.141H191.28V108.685Z" fill="white"/>
</mask>
<g mask="url(#mask44_21_71)">
<mask id="mask45_21_71" style="mask-type:luminance" maskUnits="userSpaceOnUse" x="164" y="108" width="28" height="17">
<path d="M164.963 108.858H191.075V124.025H164.963V108.858Z" fill="white"/>
</mask>
<g mask="url(#mask45_21_71)">
<mask id="mask46_21_71" style="mask-type:luminance" maskUnits="userSpaceOnUse" x="165" y="108" width="26" height="16">
<path d="M165.507 120.674C176.341 113.813 185.784 109.509 188.491 109.069C189.264 108.923 189.808 108.849 190.192 109.143C190.659 109.509 191.12 110.604 190.97 111.113C190.814 111.696 189.808 112.355 189.186 112.355C188.646 112.429 187.951 111.989 187.718 111.622C187.407 111.187 187.252 110.458 187.485 110.018C187.796 109.509 188.88 108.923 189.419 108.923C189.963 108.923 190.659 109.436 190.892 109.871C191.043 110.385 191.043 111.187 190.425 111.915C188.802 114.033 178.431 116.879 174.329 119.286C171.544 120.894 169.532 123.594 167.753 123.956C166.747 124.103 165.507 123.814 165.119 123.227C164.735 122.718 165.507 120.674 165.507 120.674Z" fill="white"/>
</mask>
<g mask="url(#mask46_21_71)">
<path d="M533.7 -221.963H-224.892V493.429H533.7V-221.963Z" fill="#3E8D43"/>
</g>
</g>
</g>
</g>
</g>
<mask id="mask47_21_71" style="mask-type:luminance" maskUnits="userSpaceOnUse" x="162" y="116" width="18" height="17">
<path d="M162.499 116.733H179.213V132.741H162.499V116.733Z" fill="white"/>
</mask>
<g mask="url(#mask47_21_71)">
<mask id="mask48_21_71" style="mask-type:luminance" maskUnits="userSpaceOnUse" x="162" y="116" width="18" height="17">
<path d="M164.424 122.425C178.742 115.637 179.203 116.733 179.203 117.608C179.281 118.703 177.891 120.601 176.963 121.623C176.263 122.425 175.646 122.792 174.64 123.52C173.09 124.616 169.92 127.315 168.215 127.462C167.286 127.604 166.203 127.169 165.741 126.587C165.352 126 165.352 124.978 165.741 124.103C166.514 122.645 170.538 119.945 172.01 119.505C172.705 119.286 173.245 119.359 173.711 119.505C174.173 119.725 174.795 120.161 174.951 120.601C175.179 121.256 175.102 122.278 174.484 123.154C173.4 124.758 167.675 128.553 166.047 128.191C165.197 127.971 164.191 126.367 164.502 125.78C165.046 124.616 172.394 123.52 174.251 124.176C175.257 124.469 175.879 125.418 176.03 126.073C176.185 126.656 175.879 127.315 175.257 127.971C173.867 129.433 168.059 132.568 165.896 132.641C164.735 132.715 163.651 132.206 163.262 131.619C162.878 131.11 162.878 130.088 163.185 129.575C163.573 128.993 164.968 128.337 165.663 128.411C166.28 128.411 167.209 129.066 167.364 129.648C167.597 130.308 167.286 131.766 166.747 132.206C166.28 132.641 165.197 132.788 164.657 132.641C164.113 132.568 163.651 132.279 163.418 131.839C163.107 131.257 162.956 130.088 163.418 129.213C164.346 127.604 168.992 125.271 170.849 124.616C171.777 124.249 172.472 124.176 173.167 124.176C173.789 124.176 174.329 124.103 174.795 124.323C175.257 124.616 175.724 125.051 175.879 125.565C176.108 126 176.108 126.656 175.879 127.095C175.724 127.535 175.413 127.898 174.795 128.264C173.4 129.066 168.759 129.868 166.591 129.868C165.119 129.942 163.496 130.088 162.956 129.36C162.256 128.484 162.489 125.927 163.418 124.542C164.735 122.572 169.61 120.308 171.466 119.725C172.394 119.432 173.09 119.359 173.711 119.505C174.251 119.725 174.717 120.161 174.951 120.601C175.179 121.11 175.257 121.696 175.102 122.205C174.873 122.865 174.407 123.374 173.789 124.029C172.628 125.051 169.687 127.242 168.215 127.462C167.442 127.604 166.669 127.389 166.125 127.022C165.663 126.587 165.352 125.638 165.352 125.051C165.43 124.616 165.663 124.249 166.125 123.74C167.286 122.498 171.777 120.381 173.4 119.07C174.407 118.19 174.795 116.733 175.49 116.733C176.185 116.806 177.813 118.41 177.658 119.432C177.269 121.256 169.143 125.853 166.669 126.147C165.43 126.293 164.191 125.78 163.806 125.198C163.418 124.542 164.424 122.425 164.424 122.425Z" fill="white"/>
</mask>
<g mask="url(#mask48_21_71)">
<mask id="mask49_21_71" style="mask-type:luminance" maskUnits="userSpaceOnUse" x="162" y="116" width="18" height="17">
<path d="M179.574 116.413H162.014V132.973H179.574V116.413Z" fill="white"/>
</mask>
<g mask="url(#mask49_21_71)">
<mask id="mask50_21_71" style="mask-type:luminance" maskUnits="userSpaceOnUse" x="162" y="116" width="18" height="17">
<path d="M162.499 116.733H179.213V132.741H162.499V116.733Z" fill="white"/>
</mask>
<g mask="url(#mask50_21_71)">
<mask id="mask51_21_71" style="mask-type:luminance" maskUnits="userSpaceOnUse" x="162" y="116" width="18" height="17">
<path d="M164.424 122.425C178.742 115.637 179.203 116.733 179.203 117.608C179.281 118.703 177.891 120.601 176.963 121.623C176.263 122.425 175.646 122.792 174.64 123.52C173.09 124.616 169.92 127.315 168.215 127.462C167.286 127.604 166.203 127.169 165.741 126.587C165.352 126 165.352 124.978 165.741 124.103C166.514 122.645 170.538 119.945 172.01 119.505C172.705 119.286 173.245 119.359 173.711 119.505C174.173 119.725 174.795 120.161 174.951 120.601C175.179 121.256 175.102 122.278 174.484 123.154C173.4 124.758 167.675 128.553 166.047 128.191C165.197 127.971 164.191 126.367 164.502 125.78C165.046 124.616 172.394 123.52 174.251 124.176C175.257 124.469 175.879 125.418 176.03 126.073C176.185 126.656 175.879 127.315 175.257 127.971C173.867 129.433 168.059 132.568 165.896 132.641C164.735 132.715 163.651 132.206 163.262 131.619C162.878 131.11 162.878 130.088 163.185 129.575C163.573 128.993 164.968 128.337 165.663 128.411C166.28 128.411 167.209 129.066 167.364 129.648C167.597 130.308 167.286 131.766 166.747 132.206C166.28 132.641 165.197 132.788 164.657 132.641C164.113 132.568 163.651 132.279 163.418 131.839C163.107 131.257 162.956 130.088 163.418 129.213C164.346 127.604 168.992 125.271 170.849 124.616C171.777 124.249 172.472 124.176 173.167 124.176C173.789 124.176 174.329 124.103 174.795 124.323C175.257 124.616 175.724 125.051 175.879 125.565C176.108 126 176.108 126.656 175.879 127.095C175.724 127.535 175.413 127.898 174.795 128.264C173.4 129.066 168.759 129.868 166.591 129.868C165.119 129.942 163.496 130.088 162.956 129.36C162.256 128.484 162.489 125.927 163.418 124.542C164.735 122.572 169.61 120.308 171.466 119.725C172.394 119.432 173.09 119.359 173.711 119.505C174.251 119.725 174.717 120.161 174.951 120.601C175.179 121.11 175.257 121.696 175.102 122.205C174.873 122.865 174.407 123.374 173.789 124.029C172.628 125.051 169.687 127.242 168.215 127.462C167.442 127.604 166.669 127.389 166.125 127.022C165.663 126.587 165.352 125.638 165.352 125.051C165.43 124.616 165.663 124.249 166.125 123.74C167.286 122.498 171.777 120.381 173.4 119.07C174.407 118.19 174.795 116.733 175.49 116.733C176.185 116.806 177.813 118.41 177.658 119.432C177.269 121.256 169.143 125.853 166.669 126.147C165.43 126.293 164.191 125.78 163.806 125.198C163.418 124.542 164.424 122.425 164.424 122.425Z" fill="white"/>
</mask>
<g mask="url(#mask51_21_71)">
<path d="M533.701 -221.963H-224.891V493.429H533.701V-221.963Z" fill="#3E8D43"/>
</g>
</g>
</g>
</g>
</g>
<mask id="mask52_21_71" style="mask-type:luminance" maskUnits="userSpaceOnUse" x="76" y="121" width="20" height="12">
<path d="M76.6147 121.196H95.9993V132.469H76.6147V121.196Z" fill="white"/>
</mask>
<g mask="url(#mask52_21_71)">
<mask id="mask53_21_71" style="mask-type:luminance" maskUnits="userSpaceOnUse" x="76" y="121" width="20" height="12">
<path d="M77.9091 128.337C94.3899 121.11 95.245 121.623 95.6291 122.205C96.0178 122.718 96.0178 123.667 95.6291 124.176C95.245 124.689 93.928 125.344 93.2329 125.198C92.5333 125.051 91.5272 123.956 91.4495 123.3C91.3717 122.718 91.8382 121.843 92.3778 121.476C92.922 121.11 94.4676 121.11 95.0118 121.476C95.5514 121.843 95.8623 122.718 95.9401 123.3C95.9401 123.74 95.7846 124.102 95.3959 124.542C94.3899 125.638 91.0654 127.315 88.5868 128.553C85.8797 129.868 81.5445 131.839 79.7657 132.275C79.0706 132.421 78.6819 132.495 78.1423 132.348C77.5981 132.132 76.7476 131.472 76.6698 130.89C76.5143 130.235 77.9091 128.337 77.9091 128.337Z" fill="white"/>
</mask>
<g mask="url(#mask53_21_71)">
<mask id="mask54_21_71" style="mask-type:luminance" maskUnits="userSpaceOnUse" x="76" y="120" width="21" height="13">
<path d="M96.457 120.829H76.5557V132.973H96.457V120.829Z" fill="white"/>
</mask>
<g mask="url(#mask54_21_71)">
<mask id="mask55_21_71" style="mask-type:luminance" maskUnits="userSpaceOnUse" x="76" y="121" width="20" height="12">
<path d="M76.6152 121.196H95.9998V132.469H76.6152V121.196Z" fill="white"/>
</mask>
<g mask="url(#mask55_21_71)">
<mask id="mask56_21_71" style="mask-type:luminance" maskUnits="userSpaceOnUse" x="76" y="121" width="20" height="12">
<path d="M77.9096 128.337C94.3904 121.11 95.2455 121.623 95.6296 122.205C96.0183 122.718 96.0183 123.667 95.6296 124.176C95.2455 124.689 93.9285 125.344 93.2334 125.198C92.5337 125.051 91.5277 123.956 91.45 123.3C91.3722 122.718 91.8387 121.843 92.3783 121.476C92.9224 121.11 94.4681 121.11 95.0123 121.476C95.5519 121.843 95.8628 122.718 95.9406 123.3C95.9406 123.74 95.7851 124.102 95.3964 124.542C94.3904 125.638 91.0658 127.315 88.5873 128.553C85.8802 129.868 81.545 131.839 79.7662 132.275C79.0711 132.421 78.6824 132.495 78.1428 132.348C77.5986 132.132 76.748 131.472 76.6703 130.89C76.5148 130.235 77.9096 128.337 77.9096 128.337Z" fill="white"/>
</mask>
<g mask="url(#mask56_21_71)">
<path d="M533.701 -221.963H-224.891V493.429H533.701V-221.963Z" fill="#3E8D43"/>
</g>
</g>
</g>
</g>
</g>
<mask id="mask57_21_71" style="mask-type:luminance" maskUnits="userSpaceOnUse" x="77" y="127" width="15" height="12">
<path d="M77.7256 127.678H91.1608V138.834H77.7256V127.678Z" fill="white"/>
</mask>
<g mask="url(#mask57_21_71)">
<mask id="mask58_21_71" style="mask-type:luminance" maskUnits="userSpaceOnUse" x="77" y="127" width="15" height="12">
<path d="M79.1478 131.546C89.7478 127.678 90.6761 128.117 90.9871 128.7C91.2935 129.286 91.0648 130.451 90.3652 131.399C89.0527 133.223 83.4006 136.949 81.0821 137.312C79.9206 137.532 78.6036 137.238 78.1417 136.73C77.6753 136.216 77.5976 135.052 78.1417 134.319C79.07 132.788 85.0286 130.597 86.9629 130.451C87.8912 130.308 88.5863 130.597 89.0527 130.964C89.4369 131.257 89.7478 131.839 89.8255 132.279C89.8255 132.788 89.7478 133.223 89.3591 133.81C88.664 135.052 85.8791 137.967 84.3289 138.554C83.3229 138.916 82.0104 138.847 81.4663 138.334C80.9267 137.898 80.6157 136.363 80.8489 135.707C81.0821 135.121 82.0104 134.539 82.6278 134.465C83.3229 134.392 84.3289 134.685 84.7176 135.121C85.184 135.634 85.4904 136.583 85.3349 137.165C85.184 137.752 84.4844 138.554 83.867 138.774C83.172 138.916 81.544 138.554 81.0821 137.967C80.6934 137.458 80.6934 136.216 81.1599 135.268C81.855 133.81 84.8731 131.11 86.4187 130.597C87.347 130.308 88.5085 130.524 89.0527 130.964C89.5146 131.257 89.7478 131.839 89.8255 132.279C89.8255 132.861 89.6701 133.59 88.975 134.172C87.7357 135.414 82.55 137.458 80.6157 137.532C79.5319 137.532 78.6036 137.238 78.1417 136.73C77.753 136.143 77.5976 135.121 78.1417 134.319C79.1478 132.421 85.8791 128.044 88.2753 127.751C89.4369 127.604 90.6761 128.044 90.9871 128.7C91.3712 129.286 91.0648 130.524 90.3652 131.399C88.975 133.008 82.861 135.707 80.6157 135.561C79.4542 135.561 78.2195 134.832 77.9863 134.172C77.753 133.517 79.1478 131.546 79.1478 131.546Z" fill="white"/>
</mask>
<g mask="url(#mask58_21_71)">
<mask id="mask59_21_71" style="mask-type:luminance" maskUnits="userSpaceOnUse" x="77" y="127" width="15" height="13">
<path d="M91.7736 127.453H77.7256V139.597H91.7736V127.453Z" fill="white"/>
</mask>
<g mask="url(#mask59_21_71)">
<mask id="mask60_21_71" style="mask-type:luminance" maskUnits="userSpaceOnUse" x="77" y="127" width="15" height="12">
<path d="M77.7256 127.678H91.1608V138.834H77.7256V127.678Z" fill="white"/>
</mask>
<g mask="url(#mask60_21_71)">
<mask id="mask61_21_71" style="mask-type:luminance" maskUnits="userSpaceOnUse" x="77" y="127" width="15" height="12">
<path d="M79.1478 131.546C89.7478 127.678 90.6761 128.117 90.9871 128.7C91.2935 129.286 91.0648 130.451 90.3652 131.399C89.0527 133.223 83.4006 136.949 81.0821 137.312C79.9206 137.532 78.6036 137.238 78.1417 136.73C77.6753 136.216 77.5976 135.052 78.1417 134.319C79.07 132.788 85.0286 130.597 86.9629 130.451C87.8912 130.308 88.5863 130.597 89.0527 130.964C89.4369 131.257 89.7478 131.839 89.8256 132.279C89.8256 132.788 89.7478 133.223 89.3591 133.81C88.664 135.052 85.8791 137.967 84.3289 138.554C83.3229 138.916 82.0104 138.847 81.4663 138.334C80.9267 137.898 80.6157 136.363 80.8489 135.707C81.0821 135.121 82.0104 134.539 82.6278 134.465C83.3229 134.392 84.3289 134.685 84.7176 135.121C85.184 135.634 85.4904 136.583 85.3349 137.165C85.184 137.752 84.4844 138.554 83.867 138.774C83.172 138.916 81.544 138.554 81.0821 137.967C80.6934 137.458 80.6934 136.216 81.1599 135.268C81.855 133.81 84.8731 131.11 86.4187 130.597C87.347 130.308 88.5085 130.524 89.0527 130.964C89.5146 131.257 89.7478 131.839 89.8256 132.279C89.8256 132.861 89.6701 133.59 88.975 134.172C87.7357 135.414 82.55 137.458 80.6157 137.532C79.5319 137.532 78.6036 137.238 78.1417 136.73C77.753 136.143 77.5976 135.121 78.1417 134.319C79.1478 132.421 85.8791 128.044 88.2753 127.751C89.4369 127.604 90.6761 128.044 90.9871 128.7C91.3712 129.286 91.0648 130.524 90.3652 131.399C88.975 133.008 82.861 135.707 80.6157 135.561C79.4542 135.561 78.2195 134.832 77.9863 134.172C77.753 133.517 79.1478 131.546 79.1478 131.546Z" fill="white"/>
</mask>
<g mask="url(#mask61_21_71)">
<path d="M533.7 -221.963H-224.892V493.429H533.7V-221.963Z" fill="#3E8D43"/>
</g>
</g>
</g>
</g>
</g>
</g>
</svg>
