<svg width="25" height="25" viewBox="0 0 25 25" fill="none" xmlns="http://www.w3.org/2000/svg">
<path d="M8.82088 12.0803H6.1232C5.24072 12.0779 4.39509 11.7262 3.77108 11.1022C3.14707 10.4782 2.79542 9.63255 2.79297 8.75007V6.0431C2.79543 5.16148 3.14738 4.31681 3.77165 3.69428C4.39593 3.07175 5.24158 2.72216 6.1232 2.72217H8.82088C9.7025 2.72216 10.5482 3.07175 11.1724 3.69428C11.7967 4.31681 12.1486 5.16148 12.1511 6.0431V8.75007C12.1487 9.63255 11.797 10.4782 11.173 11.1022C10.549 11.7262 9.70335 12.0779 8.82088 12.0803V12.0803ZM6.1232 4.11752C5.61165 4.11751 5.12091 4.32009 4.75831 4.68094C4.39572 5.04179 4.19078 5.53155 4.18832 6.0431V8.75007C4.18832 9.26324 4.39217 9.75538 4.75503 10.1182C5.11789 10.4811 5.61004 10.685 6.1232 10.685H8.82088C9.33404 10.685 9.82618 10.4811 10.189 10.1182C10.5519 9.75538 10.7558 9.26324 10.7558 8.75007V6.0431C10.7533 5.53155 10.5484 5.04179 10.1858 4.68094C9.82317 4.32009 9.33243 4.11751 8.82088 4.11752H6.1232ZM19.4627 12.1082H16.7651C15.8818 12.1082 15.0348 11.7574 14.4102 11.1328C13.7857 10.5083 13.4348 9.66121 13.4348 8.77798V6.08031C13.4373 5.19783 13.7889 4.3522 14.4129 3.72819C15.037 3.10418 15.8826 2.75253 16.7651 2.75007H19.4627C20.3452 2.75253 21.1908 3.10418 21.8149 3.72819C22.4389 4.3522 22.7905 5.19783 22.793 6.08031V8.77798C22.793 9.66121 22.4421 10.5083 21.8176 11.1328C21.193 11.7574 20.346 12.1082 19.4627 12.1082ZM16.7651 4.14542C16.2519 4.14542 15.7598 4.34928 15.3969 4.71214C15.034 5.075 14.8302 5.56714 14.8302 6.08031V8.77798C14.8302 9.29114 15.034 9.78329 15.3969 10.1462C15.7598 10.509 16.2519 10.7129 16.7651 10.7129H19.4627C19.9759 10.7129 20.468 10.509 20.8309 10.1462C21.1938 9.78329 21.3976 9.29114 21.3976 8.77798V6.08031C21.3976 5.56714 21.1938 5.075 20.8309 4.71214C20.468 4.34928 19.9759 4.14542 19.4627 4.14542H16.7651ZM8.82088 22.7501H6.1232C5.24072 22.7476 4.39509 22.396 3.77108 21.772C3.14707 21.148 2.79542 20.3023 2.79297 19.4198V16.7222C2.79297 15.8389 3.14383 14.9919 3.76837 14.3673C4.39291 13.7428 5.23997 13.3919 6.1232 13.3919H8.82088C9.70411 13.3919 10.5512 13.7428 11.1757 14.3673C11.8002 14.9919 12.1511 15.8389 12.1511 16.7222V19.4198C12.1438 20.2991 11.79 21.14 11.1665 21.76C10.543 22.38 9.70015 22.7291 8.82088 22.7315V22.7501ZM6.1232 14.7873C5.61004 14.7873 5.11789 14.9911 4.75503 15.354C4.39217 15.7169 4.18832 16.209 4.18832 16.7222V19.4198C4.18832 19.933 4.39217 20.4252 4.75503 20.788C5.11789 21.1509 5.61004 21.3547 6.1232 21.3547H8.82088C9.33404 21.3547 9.82618 21.1509 10.189 20.788C10.5519 20.4252 10.7558 19.933 10.7558 19.4198V16.7222C10.7558 16.209 10.5519 15.7169 10.189 15.354C9.82618 14.9911 9.33404 14.7873 8.82088 14.7873H6.1232ZM19.4627 22.778H16.7651C15.8834 22.778 15.0378 22.4284 14.4135 21.8059C13.7892 21.1833 13.4373 20.3387 13.4348 19.4571V16.7315C13.4373 15.849 13.7889 15.0034 14.4129 14.3794C15.037 13.7553 15.8826 13.4037 16.7651 13.4012H19.4627C20.3452 13.4037 21.1908 13.7553 21.8149 14.3794C22.4389 15.0034 22.7905 15.849 22.793 16.7315V19.4384C22.7905 20.3201 22.4386 21.1647 21.8143 21.7873C21.19 22.4098 20.3444 22.7594 19.4627 22.7594V22.778ZM16.7651 14.8152C16.2519 14.8152 15.7598 15.019 15.3969 15.3819C15.034 15.7448 14.8302 16.2369 14.8302 16.7501V19.4384C14.8326 19.95 15.0376 20.4398 15.4002 20.8006C15.7628 21.1615 16.2535 21.364 16.7651 21.364H19.4627C19.9743 21.364 20.465 21.1615 20.8276 20.8006C21.1902 20.4398 21.3952 19.95 21.3976 19.4384V16.7315C21.3976 16.2183 21.1938 15.7262 20.8309 15.3633C20.468 15.0004 19.9759 14.7966 19.4627 14.7966L16.7651 14.8152Z" fill="#3E8D43"/>
</svg>
