<svg width="17" height="20" viewBox="0 0 17 20" fill="none" xmlns="http://www.w3.org/2000/svg">
<path d="M14.0873 2.61792C13.1977 1.84359 12.1473 1.26233 11.0064 0.913148C9.86545 0.563969 8.66053 0.454954 7.47248 0.593424C5.93453 0.768581 4.47576 1.34866 3.25506 2.27047C2.03436 3.19228 1.09855 4.42048 0.549574 5.82127C0.000593198 7.22207 -0.140509 8.74174 0.141639 10.2148C0.423786 11.6878 1.11836 13.0576 2.14971 14.1751L6.10767 18.4442C6.40218 18.7651 6.76367 19.022 7.16831 19.1979C7.57294 19.3739 8.01152 19.4648 8.45514 19.4648C8.89877 19.4648 9.33735 19.3739 9.74198 19.1979C10.1466 19.022 10.5081 18.7651 10.8026 18.4442L14.7606 14.1751C16.253 12.5551 17.0203 10.4285 16.8941 8.26185C16.7678 6.09523 15.7584 4.06551 14.0873 2.61792ZM8.45514 18.1449C8.20275 18.1431 7.9535 18.0905 7.72323 17.9905C7.49297 17.8905 7.28673 17.7452 7.11763 17.564L3.16877 13.2949C2.30097 12.3591 1.71581 11.2106 1.47726 9.97477C1.2387 8.73897 1.35593 7.46351 1.81614 6.28781C2.27634 5.11212 3.0618 4.08145 4.08665 3.30847C5.11151 2.53549 6.33631 2.04996 7.62716 1.90494C7.90922 1.90494 8.19128 1.90494 8.47334 1.90494C10.2126 1.90813 11.8887 2.53541 13.1774 3.66537C14.5774 4.87816 15.423 6.5786 15.5288 8.39372C15.6345 10.2088 14.9918 11.9904 13.7415 13.3477L9.79266 17.6168C9.6188 17.7885 9.41043 17.9239 9.1804 18.0147C8.95037 18.1056 8.70355 18.1499 8.45514 18.1449ZM8.45514 5.24096C7.73339 5.24101 7.02796 5.44867 6.4285 5.83752C5.82904 6.22638 5.36263 6.77888 5.08855 7.42481C4.81447 8.07073 4.7451 8.7809 4.88926 9.46505C5.03342 10.1492 5.38459 10.7764 5.89815 11.267C6.4117 11.7577 7.06445 12.0895 7.77341 12.2203C8.48238 12.3511 9.21555 12.2751 9.87973 12.0019C10.5439 11.7286 11.1091 11.2705 11.5035 10.6857C11.8979 10.101 12.1037 9.41597 12.0946 8.71781C12.0827 7.79166 11.694 6.90739 11.0127 6.25658C10.3315 5.60578 9.41257 5.24089 8.45514 5.24096ZM8.45514 10.8831C8.01207 10.8849 7.57843 10.7594 7.20915 10.5225C6.83987 10.2856 6.55156 9.94806 6.38075 9.55256C6.20995 9.15705 6.16432 8.7214 6.24966 8.30079C6.33499 7.88018 6.54745 7.49353 6.86011 7.18983C7.17278 6.88612 7.57159 6.67902 8.00602 6.59475C8.44045 6.51048 8.89096 6.55285 9.30049 6.71648C9.71002 6.8801 10.0601 7.15763 10.3065 7.5139C10.5528 7.87018 10.6843 8.28917 10.6843 8.71781C10.6843 9.29056 10.4498 9.84 10.032 10.2458C9.61418 10.6516 9.0472 10.8808 8.45514 10.8831Z" fill="black"/>
</svg>
