<svg width="18" height="17" viewBox="0 0 18 17" fill="none" xmlns="http://www.w3.org/2000/svg">
<path d="M16.4524 5.21313C16.1078 4.81157 15.6774 4.48639 15.1907 4.25974C14.704 4.03309 14.1723 3.9103 13.632 3.89974C13.4988 2.82478 12.9617 1.83422 12.1223 1.11556C11.2829 0.396894 10.1995 0 9.07711 0C7.95476 0 6.87136 0.396894 6.03197 1.11556C5.19257 1.83422 4.65544 2.82478 4.52225 3.89974C3.98886 3.90921 3.46352 4.02687 2.98038 4.24507C2.49723 4.46327 2.06712 4.77713 1.71801 5.16622C1.35377 5.58248 1.08701 6.06969 0.935938 6.59455C0.78487 7.11941 0.753065 7.66954 0.842694 8.20735L1.78284 13.6251C1.9203 14.4946 2.37588 15.2879 3.06715 15.8615C3.75842 16.4351 4.63971 16.751 5.55155 16.7522H12.5622C13.4634 16.7482 14.3344 16.438 15.0221 15.8761C15.7098 15.3143 16.1703 14.5366 16.3228 13.6798L17.3196 8.26207C17.4155 7.72361 17.3874 7.17142 17.2376 6.64456C17.0877 6.1177 16.8197 5.62903 16.4524 5.21313ZM9.07711 1.14006C9.87505 1.14578 10.6454 1.42236 11.2531 1.92127C11.8607 2.42019 12.2668 3.10957 12.4001 3.86847H5.75417C5.88746 3.10957 6.29354 2.42019 6.90117 1.92127C7.50881 1.42236 8.27917 1.14578 9.07711 1.14006ZM16.1039 8.05881L15.0989 13.4765C14.9961 14.0614 14.6831 14.5927 14.2148 14.9773C13.7465 15.3618 13.1528 15.575 12.5378 15.5795H5.52724C4.90446 15.5769 4.30319 15.3596 3.83202 14.9667C3.36086 14.5739 3.05086 14.0315 2.95803 13.4375L2.0422 8.01972C1.98137 7.64943 2.00342 7.27087 2.10687 6.90949C2.21032 6.54811 2.39276 6.21227 2.64195 5.92455C2.8845 5.64872 3.18618 5.42691 3.52618 5.2744C3.86619 5.12189 4.23643 5.04231 4.6114 5.04114H13.5266C13.9139 5.03388 14.298 5.11095 14.6502 5.2666C15.0024 5.42225 15.3137 5.65249 15.5609 5.94019C15.8059 6.23386 15.9815 6.57562 16.0753 6.94158C16.1691 7.30753 16.1789 7.68883 16.1039 8.05881ZM5.89195 7.48811C5.89195 7.64273 5.84442 7.79388 5.75536 7.92244C5.6663 8.05101 5.53972 8.15121 5.39163 8.21038C5.24354 8.26955 5.08058 8.28503 4.92336 8.25487C4.76614 8.2247 4.62173 8.15024 4.50838 8.04091C4.39504 7.93158 4.31785 7.79228 4.28657 7.64063C4.2553 7.48898 4.27135 7.33179 4.33269 7.18893C4.39404 7.04608 4.49792 6.92399 4.6312 6.83808C4.76448 6.75218 4.92118 6.70633 5.08147 6.70633C5.29643 6.70633 5.50257 6.78869 5.65457 6.93531C5.80656 7.08192 5.89195 7.28077 5.89195 7.48811ZM13.867 7.48811C13.867 7.64273 13.8195 7.79388 13.7304 7.92244C13.6414 8.05101 13.5148 8.15121 13.3667 8.21038C13.2186 8.26955 13.0556 8.28503 12.8984 8.25487C12.7412 8.2247 12.5968 8.15024 12.4834 8.04091C12.3701 7.93158 12.2929 7.79228 12.2616 7.64063C12.2304 7.48898 12.2464 7.33179 12.3078 7.18893C12.3691 7.04608 12.473 6.92399 12.6063 6.83808C12.7395 6.75218 12.8962 6.70633 13.0565 6.70633C13.2715 6.70633 13.4776 6.78869 13.6296 6.93531C13.7816 7.08192 13.867 7.28077 13.867 7.48811Z" fill="black"/>
</svg>
