<svg width="19" height="19" viewBox="0 0 19 19" fill="none" xmlns="http://www.w3.org/2000/svg">
<path d="M8.76367 1.63831C12.6986 1.63831 15.8885 4.82846 15.8887 8.76331C15.8887 10.4883 15.275 12.0697 14.2549 13.3024L17.1562 16.2047C17.419 16.4675 17.419 16.8931 17.1562 17.1559C16.8935 17.4186 16.4679 17.4187 16.2051 17.1559L13.3027 14.2545C12.07 15.2746 10.4887 15.8883 8.76367 15.8883C4.82882 15.8881 1.63867 12.6982 1.63867 8.76331C1.63888 4.82859 4.82895 1.63852 8.76367 1.63831ZM8.76367 2.95959C5.55826 2.95981 2.96017 5.55789 2.95996 8.76331C2.95996 11.9689 5.55813 14.5678 8.76367 14.568C11.9694 14.568 14.5684 11.969 14.5684 8.76331C14.5681 5.55776 11.9693 2.95959 8.76367 2.95959Z" fill="black"/>
</svg>
