<svg width="42" height="40" viewBox="0 0 42 40" fill="none" xmlns="http://www.w3.org/2000/svg">
<path d="M13.2098 14.2754C13.0073 13.9939 12.9189 13.651 12.9613 13.3112C13.0038 12.9715 13.1741 12.6584 13.4402 12.4309L16.3011 10.199V6.78668C16.3011 6.41978 16.4528 6.06791 16.7229 5.80847C16.9929 5.54903 17.3592 5.40328 17.7411 5.40328C18.123 5.40328 18.4893 5.54903 18.7594 5.80847C19.0294 6.06791 19.1812 6.41978 19.1812 6.78668V10.8631C19.1805 11.0732 19.13 11.2804 19.0335 11.4689C18.937 11.6575 18.7971 11.8225 18.6243 11.9513L15.2259 14.5521C14.9761 14.7461 14.6638 14.8504 14.3427 14.8472C14.1213 14.8395 13.9046 14.7842 13.7085 14.6852C13.5124 14.5862 13.342 14.4462 13.2098 14.2754V14.2754ZM41.78 21.8933V29.3821C41.7749 31.1074 41.0592 32.7608 39.7892 33.9808C38.5193 35.2008 36.7983 35.8884 35.0022 35.8932H33.3894C33.0758 36.9499 32.4123 37.8796 31.4994 38.5415C30.5865 39.2034 29.4739 39.5615 28.3301 39.5615C27.1864 39.5615 26.0738 39.2034 25.1609 38.5415C24.2479 37.8796 23.5844 36.9499 23.2708 35.8932H18.0291C17.7155 36.9499 17.052 37.8796 16.1391 38.5415C15.2262 39.2034 14.1136 39.5615 12.9698 39.5615C11.8261 39.5615 10.7135 39.2034 9.80057 38.5415C8.88765 37.8796 8.22414 36.9499 7.91055 35.8932H6.77773C4.98172 35.8884 3.26072 35.2008 1.99075 33.9808C0.720773 32.7608 0.00506634 31.1074 0 29.3821V12.0251C0.00506634 10.2997 0.720773 8.64643 1.99075 7.42641C3.26072 6.20638 4.98172 5.51882 6.77773 5.51396H7.77614C8.78883 3.83685 10.2424 2.44476 11.9912 1.47706C13.7401 0.509351 15.7229 0 17.7411 0C19.7593 0 21.7422 0.509351 23.491 1.47706C25.2399 2.44476 26.6934 3.83685 27.7061 5.51396H29.5301C30.7625 5.51417 31.9714 5.83715 33.027 6.44816C34.0825 7.05917 34.9446 7.93508 35.5207 8.98166L40.9928 18.9052C41.5002 19.8462 41.7699 20.8889 41.78 21.9486V21.8933ZM36.0199 15.6035H34.0998C33.9776 15.6035 33.8604 15.6501 33.774 15.7331C33.6876 15.8162 33.639 15.9288 33.639 16.0462V21.5797C33.639 21.6971 33.6876 21.8097 33.774 21.8928C33.8604 21.9758 33.9776 22.0224 34.0998 22.0224H38.9383V21.8564C38.9383 21.2446 38.78 20.6425 38.4775 20.1041L36.0199 15.6035ZM9.13937 10.9922C9.13937 12.6338 9.64611 14.2386 10.5955 15.6036C11.5449 16.9686 12.8943 18.0325 14.4731 18.6607C16.0519 19.2889 17.7891 19.4533 19.4651 19.133C21.1412 18.8128 22.6807 18.0222 23.889 16.8614C25.0974 15.7006 25.9203 14.2216 26.2537 12.6115C26.5871 11.0014 26.4159 9.33247 25.762 7.81578C25.108 6.29909 24.0006 5.00275 22.5797 4.0907C21.1589 3.17864 19.4884 2.69184 17.7795 2.69184C16.6375 2.68939 15.5063 2.90399 14.4509 3.32326C13.3956 3.74254 12.437 4.35821 11.6304 5.13484C10.8238 5.91147 10.185 6.8337 9.75089 7.84846C9.31678 8.86321 9.0959 9.95043 9.10097 11.0475L9.13937 10.9922ZM15.3603 34.5652C15.3603 34.1092 15.2195 33.6634 14.9558 33.2842C14.6921 32.9051 14.3172 32.6095 13.8787 32.435C13.4401 32.2605 12.9576 32.2149 12.492 32.3038C12.0265 32.3928 11.5988 32.6124 11.2632 32.9348C10.9275 33.2573 10.6989 33.6681 10.6063 34.1154C10.5137 34.5626 10.5612 35.0262 10.7429 35.4475C10.9245 35.8688 11.2322 36.2289 11.6268 36.4823C12.0215 36.7356 12.4856 36.8708 12.9602 36.8708C13.5968 36.8708 14.2072 36.6279 14.6573 36.1955C15.1074 35.7631 15.3603 35.1767 15.3603 34.5652ZM30.7206 34.5652C30.7206 34.1092 30.5798 33.6634 30.3161 33.2842C30.0524 32.9051 29.6775 32.6095 29.239 32.435C28.8004 32.2605 28.3179 32.2149 27.8523 32.3038C27.3867 32.3928 26.9591 32.6124 26.6234 32.9348C26.2878 33.2573 26.0592 33.6681 25.9666 34.1154C25.874 34.5626 25.9215 35.0262 26.1032 35.4475C26.2848 35.8688 26.5924 36.2289 26.9871 36.4823C27.3818 36.7356 27.8458 36.8708 28.3205 36.8708C28.6357 36.8708 28.9478 36.8112 29.239 36.6953C29.5302 36.5794 29.7947 36.4096 30.0176 36.1955C30.2405 35.9814 30.4173 35.7272 30.5379 35.4475C30.6585 35.1678 30.7206 34.868 30.7206 34.5652V34.5652ZM38.8999 24.8814H34.0614C33.6211 24.8814 33.1851 24.7978 32.7785 24.6354C32.3719 24.4729 32.0027 24.2349 31.6923 23.9349C31.3818 23.6349 31.1361 23.2789 30.9693 22.8874C30.8026 22.4959 30.718 22.0765 30.7206 21.6535V16.12C30.7206 15.2688 31.0726 14.4524 31.6991 13.8505C32.3256 13.2486 33.1754 12.9105 34.0614 12.9105H34.3302L32.8902 10.2913C32.573 9.69462 32.0926 9.19223 31.5006 8.83802C30.9087 8.48381 30.2275 8.29116 29.5301 8.28074H28.8773C29.1325 9.18255 29.2617 10.113 29.2613 11.0475C29.2613 13.9827 28.0476 16.7977 25.8871 18.8732C23.7267 20.9487 20.7965 22.1147 17.7411 22.1147C14.6858 22.1147 11.7556 20.9487 9.59511 18.8732C7.43465 16.7977 6.22092 13.9827 6.22092 11.0475C6.22517 10.1205 6.34768 9.19754 6.58572 8.29918C5.59075 8.33266 4.64819 8.73605 3.95686 9.42429C3.26552 10.1125 2.87944 11.0318 2.88005 11.9882V29.4005C2.88005 30.3789 3.28463 31.3172 4.00478 32.0091C4.72494 32.7009 5.70167 33.0896 6.72012 33.0896H7.85295C8.16654 32.0329 8.83004 31.1032 9.74296 30.4413C10.6559 29.7793 11.7685 29.4213 12.9122 29.4213C14.056 29.4213 15.1686 29.7793 16.0815 30.4413C16.9944 31.1032 17.6579 32.0329 17.9715 33.0896H23.2132C23.5268 32.0329 24.1903 31.1032 25.1032 30.4413C26.0162 29.7793 27.1288 29.4213 28.2725 29.4213C29.4163 29.4213 30.5289 29.7793 31.4418 30.4413C32.3547 31.1032 33.0182 32.0329 33.3318 33.0896H34.9446C35.9631 33.0896 36.9398 32.7009 37.66 32.0091C38.3801 31.3172 38.7847 30.3789 38.7847 29.4005L38.8999 24.8814Z" fill="#3E8D43"/>
</svg>
