<svg width="16" height="17" viewBox="0 0 16 17" fill="none" xmlns="http://www.w3.org/2000/svg">
<path d="M7.80406 8.87454C6.93445 8.87452 6.08444 8.62454 5.36182 8.15629C4.6392 7.68804 4.07654 7.02263 3.74517 6.24444C3.41381 5.46625 3.32869 4.61034 3.50059 3.78526C3.6725 2.96018 4.09369 2.20309 4.71075 1.61002C5.32781 1.01695 6.11295 0.614613 6.96658 0.45403C7.82021 0.293448 8.70389 0.381856 9.50554 0.708044C10.3072 1.03423 10.9907 1.5835 11.4694 2.2862C11.9481 2.98889 12.2004 3.81336 12.1943 4.65503C12.1861 5.77684 11.72 6.85003 10.8976 7.6405C10.0751 8.43097 8.96311 8.87457 7.80406 8.87454ZM7.80406 1.49225C7.16517 1.49228 6.54058 1.6753 6.00896 2.01826C5.47734 2.36122 5.06247 2.84879 4.81659 3.41954C4.57072 3.99029 4.50485 4.6187 4.62727 5.22561C4.7497 5.83253 5.05495 6.39081 5.50456 6.83013C5.95418 7.26945 6.52807 7.57017 7.15393 7.6944C7.77979 7.81862 8.42963 7.76081 9.02161 7.52824C9.61359 7.29567 10.1212 6.89874 10.4806 6.38745C10.8399 5.87616 11.0349 5.27338 11.041 4.65503C11.044 4.24137 10.9626 3.8312 10.8014 3.44809C10.6402 3.06498 10.4023 2.71647 10.1016 2.42258C9.80078 2.1287 9.44298 1.89522 9.0487 1.73556C8.65443 1.57591 8.23145 1.49322 7.80406 1.49225ZM13.7243 16.3759H1.88381C1.65911 16.3781 1.43665 16.3326 1.23208 16.2426C1.02751 16.1526 0.845811 16.0203 0.699761 15.855C0.572726 15.7123 0.479394 15.5444 0.426276 15.3632C0.373158 15.182 0.361534 14.9917 0.392215 14.8057C0.93042 11.7173 4.1212 9.38803 7.80406 9.38803C11.4869 9.38803 14.6777 11.7173 15.2159 14.8057C15.2466 14.9917 15.235 15.182 15.1818 15.3632C15.1287 15.5444 15.0354 15.7123 14.9084 15.855C14.7623 16.0203 14.5806 16.1526 14.376 16.2426C14.1715 16.3326 13.949 16.3781 13.7243 16.3759ZM7.80406 10.5043C4.67478 10.5043 1.97607 12.4317 1.53013 14.9694C1.52691 14.9948 1.52936 15.0206 1.53732 15.0449C1.54528 15.0693 1.55856 15.0918 1.57627 15.1108C1.61474 15.1525 1.66225 15.1855 1.71542 15.2073C1.76858 15.2292 1.82609 15.2394 1.88381 15.2373H13.7243C13.782 15.2394 13.8395 15.2292 13.8927 15.2073C13.9459 15.1855 13.9934 15.1525 14.0319 15.1108C14.0496 15.0918 14.0628 15.0693 14.0708 15.0449C14.0788 15.0206 14.0812 14.9948 14.078 14.9694C13.632 12.4317 10.9333 10.5043 7.80406 10.5043Z" fill="black"/>
</svg>
